<?xml version="1.0" standalone="no"?>
<!DOCTYPE svg PUBLIC "-//W3C//DTD SVG 1.1//EN" "http://www.w3.org/Graphics/SVG/1.1/DTD/svg11.dtd" >
<svg xmlns="http://www.w3.org/2000/svg">
<metadata></metadata>
<defs>
<font id="camboregular" horiz-adv-x="1409" >
<font-face units-per-em="2048" ascent="1638" descent="-410" />
<missing-glyph horiz-adv-x="518" />
<glyph horiz-adv-x="2048" />
<glyph horiz-adv-x="2048" />
<glyph unicode="&#xd;" horiz-adv-x="2048" />
<glyph unicode=" "  horiz-adv-x="518" />
<glyph unicode="&#x09;" horiz-adv-x="518" />
<glyph unicode="&#xa0;" horiz-adv-x="518" />
<glyph unicode="!" horiz-adv-x="444" d="M100 98q0 47 29.5 79t77.5 32t78 -32t30 -79t-29.5 -79.5t-78.5 -32.5t-78 32t-29 80zM119 1380q47 37 131 37q68 0 95.5 -43.5t27.5 -122.5q0 -75 -47.5 -381.5t-57.5 -447.5l-114 -21q0 55 3 207.5t3 241.5q0 352 -41 530z" />
<glyph unicode="&#x22;" horiz-adv-x="602" d="M72 1401q0 42 25 66t65 24q39 0 64.5 -24t25.5 -66q0 -27 -14 -114.5t-28 -161.5l-15 -74h-64q-59 287 -59 350zM350 1401q0 42 25 66t65 24q39 0 64.5 -24t25.5 -66q0 -27 -14.5 -114.5t-28.5 -161.5l-14 -74h-63q-60 287 -60 350z" />
<glyph unicode="#" horiz-adv-x="1245" d="M55 266l23 117h262l74 279h-244l23 116h253l74 275l113 -27l-68 -248h273l73 275l113 -27l-68 -248h226l-23 -116h-233l-76 -279h217l-23 -117h-227l-76 -284l-110 28l67 256h-272l-76 -284l-110 28l67 256h-252zM459 383h272l74 279h-270z" />
<glyph unicode="$" horiz-adv-x="1087" d="M123 326q0 49 35.5 80.5t85.5 31.5q25 0 53 -11t43 -28q-14 -43 -14 -77q0 -73 55.5 -120t146.5 -50v450q-147 57 -204 91q-146 89 -157 239q-1 13 -1 26q0 130 101 216t261 94v149l13 15q29 0 75 -11v-155q139 -12 232.5 -77.5t93.5 -154.5q0 -61 -27 -98t-71 -37 q-58 0 -107 37q23 38 23 80q0 56 -39 94.5t-105 50.5v-405q44 -17 72.5 -28.5t68.5 -31.5t66.5 -38.5t56 -46t46 -57t28 -69t11.5 -84.5q0 -145 -93 -237.5t-256 -112.5v-147l-12 -15q-30 0 -76 11v147q-190 0 -297.5 74t-107.5 205zM348 969q0 -61 46 -101t134 -77v372 q-88 -8 -134 -57t-46 -137zM616 160q77 16 121.5 64.5t44.5 129.5q0 74 -43.5 123.5t-122.5 87.5v-405z" />
<glyph unicode="%" horiz-adv-x="1560" d="M84 973q0 170 75 264t224 94t225 -94t76 -264t-76 -266.5t-225 -96.5q-148 0 -223.5 96t-75.5 267zM254 973q0 -138 27.5 -207.5t101.5 -69.5q76 0 103.5 69.5t27.5 207.5q0 137 -27.5 205.5t-103.5 68.5q-74 0 -101.5 -69t-27.5 -205zM338 45l756 1323l118 -57 l-761 -1334zM877 348q0 170 75 264.5t224 94.5t225 -94.5t76 -264.5q0 -167 -85.5 -264.5t-236.5 -97.5q-278 0 -278 362zM1047 348q0 -137 27.5 -206.5t101.5 -69.5q76 0 103.5 69t27.5 207q0 137 -27.5 206t-103.5 69q-74 0 -101.5 -69.5t-27.5 -205.5z" />
<glyph unicode="&#x26;" horiz-adv-x="1560" d="M123 416q0 299 291 395q-176 80 -176 274q0 132 116.5 221t288.5 89q167 0 279 -74t112 -186q0 -66 -29.5 -106t-76.5 -40q-63 0 -111 39q23 44 23 88q0 74 -55.5 121t-141.5 47q-97 0 -155 -54.5t-58 -146.5q0 -29 7 -57.5t24.5 -57.5t44.5 -50.5t70 -35t98 -14.5v-106 q-160 -19 -253 -108.5t-93 -227.5q0 -326 409 -326q97 0 179 26t144.5 77t98 135t35.5 192q0 148 -61 273q-99 -4 -143 -27t-44 -69q0 -52 43 -89q-40 -40 -98 -40q-49 0 -80 36t-31 93q0 92 93 141t270 49q113 0 166 24t53 76q0 51 -43 88q41 41 98 41q50 0 80.5 -32 t30.5 -86q0 -197 -316 -203q74 -145 74 -303q0 -245 -156 -378.5t-421 -133.5q-269 0 -427.5 116t-158.5 310z" />
<glyph unicode="'" horiz-adv-x="323" d="M72 1401q0 42 25 66t65 24q39 0 64.5 -24t25.5 -66q0 -27 -14 -114.5t-28 -161.5l-15 -74h-64q-59 287 -59 350z" />
<glyph unicode="(" horiz-adv-x="595" d="M82 643q0 123 22.5 239t59 203t80.5 163.5t88 128.5t80.5 90t59.5 55l22 18l51 -53q-312 -327 -312 -842q0 -517 312 -844l-51 -53q-9 6 -23.5 18t-57.5 54t-82 90.5t-86.5 127.5t-81.5 164.5t-57.5 201.5t-23.5 239z" />
<glyph unicode=")" horiz-adv-x="595" d="M51 -199q311 326 311 844q0 516 -311 842l51 53q9 -6 23.5 -18t57.5 -54.5t82 -91t86.5 -127.5t81.5 -164.5t57.5 -202t23.5 -239.5t-22.5 -238.5t-59 -202.5t-80.5 -163.5t-88 -128.5t-80.5 -89.5t-59.5 -54.5l-22 -18z" />
<glyph unicode="*" horiz-adv-x="763" d="M61 1194q0 35 22.5 57.5t57.5 22.5q19 0 82 -28t127 -34q-33 45 -78.5 79.5t-68.5 57t-23 58.5q0 30 24 53t58 23q49 0 62 -28t22 -98t35 -126q18 41 28 85t13 71t9.5 51t23 34.5t47.5 10.5q33 0 56.5 -24.5t23.5 -55.5q0 -27 -15.5 -48t-37 -35t-55 -43t-60.5 -65 q58 7 123 34.5t86 27.5q35 0 57 -22.5t22 -57.5q0 -34 -22.5 -57t-56.5 -23q-21 0 -86 27.5t-123 34.5q28 -39 62 -69t55 -42.5t36 -32.5t15 -47q0 -33 -23.5 -57.5t-58.5 -24.5q-46 0 -68 43q-10 16 -17 84t-34 127q-28 -60 -34 -128t-15 -83q-25 -43 -70 -43 q-35 0 -58.5 25t-23.5 55q0 27 15 47t36 33t55 43t62 70q-63 -7 -125 -34.5t-82 -27.5q-35 0 -57.5 23t-22.5 57z" />
<glyph unicode="+" horiz-adv-x="1116" d="M127 549v117h358v370h133v-370h371v-117h-371v-371h-133v371h-358z" />
<glyph unicode="," horiz-adv-x="425" d="M113 109q0 46 34.5 75t88.5 29q58 0 93.5 -42.5t35.5 -113.5q0 -209 -211 -338l-37 52q125 83 125 192q0 34 -17.5 54t-46.5 20q-6 0 -39 -8q-26 26 -26 80z" />
<glyph unicode="-" horiz-adv-x="735" d="M61 494v118h613v-118h-613z" />
<glyph unicode="." horiz-adv-x="405" d="M100 102q0 47 29.5 79t77.5 32t78 -32t30 -79t-29.5 -79.5t-78.5 -32.5t-78 32t-29 80z" />
<glyph unicode="/" horiz-adv-x="792" d="M-20 -236l690 1790l123 -45l-691 -1790z" />
<glyph unicode="0" horiz-adv-x="1216" d="M102 664q0 318 127 494.5t379 176.5t379 -176.5t127 -494.5q0 -209 -54 -358.5t-168.5 -233.5t-283.5 -84t-283.5 84t-168.5 233.5t-54 358.5zM303 664q0 -110 7 -192t27 -156t53.5 -120t88 -73t129.5 -27t129.5 27t88 73t53.5 120t27 156t7 192t-7 191t-27 154 t-53.5 119t-88 72.5t-129.5 26.5t-129.5 -26.5t-88 -72.5t-53.5 -119t-27 -154t-7 -191z" />
<glyph unicode="1" horiz-adv-x="878" d="M86 0l6 76q193 19 295 63v977h-291v94q218 21 410 121l74 -28v-1164q41 -22 125.5 -39t146.5 -24l-8 -76h-758z" />
<glyph unicode="2" horiz-adv-x="1091" d="M104 0v125q249 214 388 362.5t197.5 263.5t58.5 230q0 252 -224 252q-97 0 -157 -58.5t-60 -144.5q0 -67 45 -127q-44 -47 -112 -47q-57 0 -95.5 39.5t-38.5 122.5q0 125 123.5 221t294.5 96q198 0 313 -100t115 -274q0 -168 -141 -355t-475 -444h670v-162h-902z" />
<glyph unicode="3" horiz-adv-x="1067" d="M78 285q0 58 37 89.5t90 31.5q57 0 104 -37q-18 -49 -18 -95q0 -84 62 -135t171 -51q113 0 175.5 73t62.5 199q0 133 -95 210t-276 77v96q165 5 254.5 74t89.5 201q0 105 -53.5 161t-151.5 56t-152 -53.5t-54 -132.5q0 -45 22 -84q-51 -39 -110 -39q-47 0 -76 38.5 t-29 102.5q0 112 115 191t289 79q181 0 292 -88.5t111 -230.5q0 -48 -11.5 -89t-40.5 -84.5t-87.5 -81.5t-143.5 -65q299 -72 299 -338q0 -163 -120.5 -268.5t-319.5 -105.5q-203 0 -319.5 80.5t-116.5 218.5z" />
<glyph unicode="4" horiz-adv-x="1101" d="M41 406l453 909q127 0 184 -51l-463 -809h461v356q53 2 93 26t52 66h49v-446l191 -41v-84h-199v-330h-186v330h-619z" />
<glyph unicode="5" horiz-adv-x="1089" d="M104 266q0 63 33.5 99t91.5 36q62 0 107 -36q-19 -46 -19 -89q0 -85 63 -138.5t161 -53.5q129 0 195.5 86.5t66.5 253.5q0 149 -72 228t-205 79q-140 0 -295 -88l-59 62l57 585l41 33q178 -6 328 -6q124 0 272 4l43 -33q-4 -80 -16 -127h-553l-37 -379q132 58 258 58 q199 0 314.5 -108.5t115.5 -305.5q0 -190 -126 -317t-328 -127q-190 0 -313.5 79.5t-123.5 204.5z" />
<glyph unicode="6" horiz-adv-x="1110" d="M102 502q0 167 54.5 307.5t154.5 244.5t231 177.5t294 120.5l34 -78q-227 -93 -360 -221t-180 -328q126 78 270 78q187 0 302.5 -106.5t115.5 -280.5q0 -190 -124.5 -309t-324.5 -119q-231 0 -349 133.5t-118 380.5zM307 502q0 -412 262 -412q117 0 180.5 85t63.5 239 q0 136 -60.5 211t-172.5 75q-159 0 -271 -125q-2 -25 -2 -73z" />
<glyph unicode="7" horiz-adv-x="985" d="M51 1286l31 35q195 -4 414 -4l422 4l38 -96q-20 -29 -52 -78.5t-115 -186.5t-146.5 -257t-115.5 -254t-52 -213q0 -109 76 -166q-73 -86 -143 -86q-60 0 -103 57.5t-43 144.5q0 38 4 72t19 76.5t27 73.5t45 88t54.5 92.5t74.5 113.5t86 126t108 156t123 177h-586 q-37 -105 -47 -235q-21 -6 -43 -6t-43 6q-5 61 -19 196t-14 164z" />
<glyph unicode="8" horiz-adv-x="1159" d="M113 346q0 110 71.5 201t188.5 158q-47 23 -81.5 48.5t-64.5 60.5t-45.5 82t-15.5 105q0 151 115 242.5t301 91.5q187 0 294 -85t107 -232q0 -84 -60 -161t-163 -134q64 -28 110 -58t89 -73t65.5 -102.5t22.5 -133.5q0 -170 -126 -269t-335 -99q-222 0 -347.5 91.5 t-125.5 266.5zM311 356q0 -123 73 -194.5t202 -71.5q123 0 192.5 71.5t69.5 194.5q0 36 -9.5 67t-23.5 53.5t-40.5 45t-48 36.5t-60 31t-62.5 26t-69.5 25.5t-67.5 25.5q-156 -103 -156 -310zM354 1016q0 -28 9.5 -53.5t22 -44.5t38 -38.5t45.5 -31.5t57.5 -29t60 -25.5 t66.5 -25.5q77 50 109.5 109.5t32.5 142.5q0 100 -60.5 157.5t-154.5 57.5q-106 0 -166 -58t-60 -161z" />
<glyph unicode="9" horiz-adv-x="1099" d="M84 913q0 190 124 309t324 119q231 0 349 -133.5t118 -380.5q0 -167 -54 -307.5t-154 -244.5t-231 -177.5t-294 -120.5l-35 78q110 45 195.5 96t156 116.5t117.5 149t70 185.5q-125 -76 -268 -76q-187 0 -302.5 106.5t-115.5 280.5zM289 915q0 -136 60.5 -211t172.5 -75 q156 0 271 125q0 11 1 35t1 38q0 412 -263 412q-117 0 -180 -85t-63 -239z" />
<glyph unicode=":" horiz-adv-x="432" d="M125 127q0 47 29 79t77 32t78.5 -32t30.5 -79t-30 -80t-79 -33t-77.5 32.5t-28.5 80.5zM125 850q0 47 29 79t77 32t78.5 -32t30.5 -79t-30 -80t-79 -33t-77.5 32.5t-28.5 80.5z" />
<glyph unicode=";" horiz-adv-x="450" d="M127 109q0 46 34.5 75t88.5 29q58 0 93.5 -42.5t35.5 -113.5q0 -209 -211 -338l-37 52q125 83 125 192q0 34 -17 54t-46 20q-6 0 -39 -8q-27 27 -27 80zM141 850q0 47 29.5 79t77.5 32t78 -32t30 -79q0 -48 -29.5 -80.5t-78.5 -32.5t-78 32.5t-29 80.5z" />
<glyph unicode="&#x3c;" horiz-adv-x="1167" d="M133 535v112l846 402l55 -113l-727 -346l727 -344l-55 -113z" />
<glyph unicode="=" horiz-adv-x="1116" d="M137 369v116h842v-116h-842zM137 684v117h842v-117h-842z" />
<glyph unicode="&#x3e;" horiz-adv-x="1167" d="M133 246l727 344l-727 346l55 113l846 -404v-110l-846 -402z" />
<glyph unicode="?" horiz-adv-x="876" d="M104 1178q0 57 30 101.5t79.5 70.5t107 39.5t119.5 13.5q80 0 144 -15.5t114.5 -48t78.5 -87.5t28 -130q0 -62 -19.5 -118t-50.5 -98t-69 -80.5t-76 -72.5t-69 -67t-50.5 -72t-19.5 -79q0 -45 12 -97q-47 -37 -96 -37q-51 0 -80 40t-29 98q0 60 20.5 111.5t53.5 89.5 t72.5 73t79.5 69.5t73 72t53.5 87t20.5 107.5q0 72 -52 116t-128 44q-68 0 -112 -27.5t-44 -85.5q0 -36 24 -80q-44 -65 -106 -65q-109 0 -109 127zM264 98q0 47 29.5 79t77.5 32t78 -32t30 -79t-29.5 -79.5t-78.5 -32.5t-78 32t-29 80z" />
<glyph unicode="@" horiz-adv-x="1966" d="M123 487q0 179 62 337.5t173.5 276.5t279.5 186.5t368 68.5q199 0 361 -58.5t269.5 -161t165.5 -242.5t58 -304q0 -170 -44.5 -302.5t-138 -213t-225.5 -80.5q-238 0 -295 117q-74 -64 -138.5 -86.5t-144.5 -22.5q-120 0 -185.5 62t-65.5 176q0 269 362 301l154 12v149 q0 103 -39 151t-123 48q-73 0 -114.5 -26t-41.5 -72t64 -70q0 -52 -32.5 -79t-90.5 -27q-57 0 -90 35t-33 88q0 108 93 170.5t245 62.5q163 0 254.5 -74.5t91.5 -206.5v-462q0 -142 141 -142q62 0 108 70t68.5 180t22.5 242q0 112 -23.5 210.5t-75 183.5t-127.5 146.5 t-186 96.5t-245 35q-206 0 -364.5 -105.5t-240.5 -280.5t-82 -389t79.5 -389t233 -280t353.5 -105q189 0 336 92l61 -79q-165 -107 -397 -107q-196 0 -359.5 68.5t-273 186t-169.5 276t-60 337.5zM805 258q0 -160 123 -160q53 0 101.5 26t109.5 87v248l-146 -13 q-88 -7 -138 -59t-50 -129z" />
<glyph unicode="A" horiz-adv-x="1452" d="M0 0l12 82q110 15 168 57l455 1247h168l491 -1249q51 -38 158 -55l-10 -82h-584l12 82q131 15 195 55l-125 328h-498l-116 -330q67 -37 204 -53l-10 -82h-520zM483 580h414l-215 561z" />
<glyph unicode="B" horiz-adv-x="1331" d="M88 0l12 82q129 14 199 57v1106q-73 43 -211 58l10 81h576q249 0 373 -89t124 -257q0 -230 -241 -301q142 -42 221.5 -131.5t79.5 -214.5q0 -179 -132 -285t-368 -106h-643zM494 109h237q148 0 223.5 72t75.5 208q0 138 -88.5 212.5t-265.5 74.5h-182v-567zM494 784h184 q155 0 228 61t73 189t-74 188t-233 60q-61 0 -178 -6v-492z" />
<glyph unicode="C" horiz-adv-x="1239" d="M98 688q0 350 157.5 529.5t469.5 179.5q79 0 154.5 -16.5t141.5 -49t106 -90t40 -131.5t-38 -123t-89 -49q-46 0 -81.5 24t-45.5 62q41 58 41 111q0 74 -62 111.5t-165 37.5q-219 0 -315.5 -140.5t-96.5 -455.5t94.5 -452.5t315.5 -137.5q26 0 53.5 3t76 18t89 40 t82.5 76t66 119l102 -37q-32 -89 -88 -155t-109 -98.5t-115.5 -51.5t-95.5 -22.5t-61 -3.5q-326 0 -476.5 170t-150.5 532z" />
<glyph unicode="D" horiz-adv-x="1454" d="M88 0l12 82q129 14 199 57v1106q-75 43 -211 58l10 81h500q381 0 570.5 -166.5t189.5 -525.5q0 -364 -190 -528t-582 -164h-498zM494 109h129q128 0 220.5 29t160.5 95t101.5 180t33.5 279q0 163 -33 276.5t-100 181t-158.5 97t-218.5 29.5q-61 0 -95.5 -1t-39.5 -1 v-1165z" />
<glyph unicode="E" horiz-adv-x="1296" d="M88 0l12 82q59 7 116.5 22.5t82.5 34.5v1106q-75 43 -211 58l10 81h1045l18 -331q-26 -11 -61 -11q-23 0 -33 2q-27 132 -102 224h-471v-510l317 22q50 4 80 49t43 97h70v-430h-70q-4 22 -7.5 36.5t-13.5 39t-22 40t-33.5 28.5t-48.5 15l-315 23v-553h524q75 99 104 248 q28 4 43 4q11 0 47 -4l-20 -373h-1104z" />
<glyph unicode="F" horiz-adv-x="1228" d="M88 0l12 82q59 7 116.5 22.5t82.5 34.5v1106q-75 43 -211 58l10 81h1045l18 -331q-33 -11 -61 -11q-23 0 -33 2q-27 132 -102 224h-471v-510l317 22q50 4 80 49t43 97h70v-430h-70q-4 22 -7.5 36.5t-13.5 39t-22 40t-33.5 28.5t-48.5 15l-315 23v-539q64 -41 211 -57 l-11 -82h-606z" />
<glyph unicode="G" horiz-adv-x="1347" d="M98 688q0 350 157.5 528.5t469.5 178.5q63 0 124.5 -9.5t122 -32.5t106.5 -56t74 -85t28 -116q0 -65 -38.5 -111.5t-88.5 -46.5q-46 0 -81.5 24t-45.5 62q41 58 41 111q0 69 -70 108t-170 39q-219 0 -315.5 -140t-96.5 -454q0 -313 91.5 -451.5t298.5 -138.5 q148 0 284 47v402l-215 16v82l406 31v-588q-243 -102 -475 -102q-312 0 -459.5 170.5t-147.5 531.5z" />
<glyph unicode="H" horiz-adv-x="1630" d="M88 0l12 82q129 14 199 57v1106q-75 43 -211 58l10 81h607l-13 -81q-125 -14 -198 -58v-477h643v477q-75 43 -211 58l10 81h606l-12 -81q-127 -14 -199 -58v-1106q73 -42 211 -57l-10 -82h-606l12 82q129 14 199 57v514h-643v-514q73 -42 211 -57l-11 -82h-606z" />
<glyph unicode="I" horiz-adv-x="821" d="M102 0l13 82q127 14 198 57v1106q-75 43 -211 58l11 81h606l-12 -81q-127 -14 -199 -58v-1106q73 -42 211 -57l-10 -82h-607z" />
<glyph unicode="J" horiz-adv-x="737" d="M43 -299q54 24 95.5 52t80 71t59.5 105t21 139v1177q-75 43 -211 58l10 81h607l-13 -81q-125 -14 -198 -58v-1145q0 -99 -30 -177t-88 -133t-133 -92.5t-175 -64.5z" />
<glyph unicode="K" horiz-adv-x="1386" d="M88 0l12 82q129 14 199 57v1106q-75 43 -211 58l10 81h607l-13 -81q-125 -14 -198 -58v-1106q73 -42 211 -57l-11 -82h-606zM512 735l412 461q18 18 18 41q0 27 -36 42.5t-95 18.5l14 86h512l-8 -81q-36 -2 -54.5 -4.5t-52.5 -10t-60.5 -25t-47.5 -44.5l-397 -443 l457 -598q72 -79 212 -94l-12 -84h-344q0 51 -37 104z" />
<glyph unicode="L" horiz-adv-x="1159" d="M88 0l12 82q129 14 199 57v1106q-75 43 -211 58l10 81h607l-13 -81q-125 -14 -198 -58v-1120h471q16 20 30 51.5t20 52t16.5 61t12.5 46.5l89 -12l-56 -324h-989z" />
<glyph unicode="M" horiz-adv-x="1939" d="M80 0l12 82q129 14 199 57v1106q-75 43 -211 58l10 81h455l440 -1112l424 1112h451l-13 -81q-125 -14 -198 -58v-1106q73 -42 211 -57l-11 -82h-598l13 82q127 14 198 57h-8v1020l-434 -1159h-131l-457 1178v-1039q73 -42 211 -57l-10 -82h-553z" />
<glyph unicode="N" horiz-adv-x="1554" d="M61 0l13 82q127 14 198 57v1106q-75 43 -211 58l11 81h364l735 -1022v883q-75 43 -210 58l10 81h553l-13 -81q-125 -14 -198 -58v-1245h-133l-766 1065v-926q73 -42 211 -57l-11 -82h-553z" />
<glyph unicode="O" d="M98 692q0 348 148.5 525.5t458.5 177.5t458 -177t148 -526t-148 -526.5t-458 -177.5t-458.5 177.5t-148.5 526.5zM315 692q0 -316 87.5 -455t302.5 -139q216 0 303.5 139t87.5 455q0 315 -87.5 453.5t-303.5 138.5t-303 -138t-87 -454z" />
<glyph unicode="P" horiz-adv-x="1249" d="M90 0l12 82q129 14 199 57v1106q-75 43 -211 58l10 81h592q484 0 484 -387q0 -112 -40.5 -190.5t-119.5 -122.5t-180.5 -63t-239.5 -19h-100v-463q73 -42 211 -57l-11 -82h-606zM496 702h100q182 0 281.5 73t99.5 226q0 145 -74.5 218t-210.5 73q-36 0 -70 -2.5t-49.5 -4 t-44.5 -6.5t-32 -5v-572z" />
<glyph unicode="Q" d="M98 692q0 348 148.5 525.5t458.5 177.5t458 -177t148 -526q0 -311 -116.5 -485t-360.5 -209q38 -100 127 -179t204 -118q4 -8 4 -18q0 -29 -24 -50q-342 62 -488 357q-286 12 -422.5 189t-136.5 513zM315 692q0 -316 87.5 -455t302.5 -139q216 0 303.5 139t87.5 455 q0 315 -87.5 453.5t-303.5 138.5t-303 -138t-87 -454z" />
<glyph unicode="R" horiz-adv-x="1398" d="M98 0l13 82q128 14 198 57v1106q-73 43 -211 58l11 81h591q504 0 504 -366q0 -139 -73 -224t-226 -122q38 -24 67 -63.5t62 -106.5l170 -363q56 -40 182 -55l-12 -84h-332l-188 461q-19 46 -31.5 72t-30 49.5t-32.5 33t-43 17t-57 9t-80 1.5h-76v-504q54 -36 211 -57 l-10 -82h-607zM504 743h100q204 0 303 69t99 210q0 133 -77.5 201.5t-228.5 68.5q-81 0 -196 -18v-531z" />
<glyph unicode="S" horiz-adv-x="1161" d="M145 98v357l111 12q23 -197 78 -324q116 -47 246 -47q122 0 196 64t74 176q0 59 -23.5 106t-63 78t-91 57t-108 48.5t-113 46.5t-108 56t-91 72t-63 100.5t-23.5 135.5q0 167 118.5 266t329.5 99q168 0 289 -80t121 -197q0 -139 -111 -139q-50 0 -78 17t-49 47 q48 43 48 110q0 55 -58.5 92t-163.5 37q-121 0 -189.5 -53t-68.5 -154q0 -55 24 -98.5t64 -73t92.5 -55t110 -48t115.5 -47.5t110.5 -59.5t92.5 -77.5t64 -106.5t24 -142.5q0 -187 -137 -288t-363 -101q-113 0 -233.5 38.5t-172.5 75.5z" />
<glyph unicode="T" horiz-adv-x="1204" d="M45 1018v373q288 -7 557 -7l557 7v-373q-32 -4 -45 -4q-21 0 -53 4q-3 52 -27 123t-63 129q-113 12 -271 14v-1145q73 -42 211 -57l-10 -82h-606l12 82q129 14 199 57v1145q-180 -3 -273 -12q-40 -56 -64 -129t-26 -125q-32 -4 -53 -4q-13 0 -45 4z" />
<glyph unicode="U" horiz-adv-x="1581" d="M70 1303l10 81h610l-12 -81q-126 -16 -199 -58v-788q0 -191 83.5 -275t262.5 -84q174 0 270.5 96t96.5 275v776q-73 43 -211 58l10 81h553l-12 -81q-126 -16 -199 -58v-776q0 -233 -132 -359t-376 -126q-287 0 -415.5 113t-128.5 360v788q-73 43 -211 58z" />
<glyph unicode="V" horiz-adv-x="1431" d="M0 1303l10 81h584l-12 -81q-127 -14 -199 -58l354 -977l355 979q-76 41 -207 56l10 81h537l-13 -81q-118 -15 -182 -58l-469 -1245h-131l-471 1247q-59 39 -166 56z" />
<glyph unicode="W" horiz-adv-x="2103" d="M4 1303l10 81h619l-12 -81q-124 -14 -197 -58l250 -979l348 1104h117l358 -1085l254 960q-75 43 -211 58l10 81h557l-12 -81q-131 -15 -203 -58l-346 -1245h-155l-340 1038l-332 -1038h-162l-346 1247q-76 41 -207 56z" />
<glyph unicode="X" horiz-adv-x="1441" d="M-4 0l12 82q90 6 144.5 31t95.5 80l375 497l-390 539q-26 36 -67 51.5t-129 22.5l10 81h617l-13 -81q-126 -12 -174 -60l283 -393l297 395q-72 47 -174 58l10 81h498l-13 -81q-76 -6 -118.5 -24.5t-71.5 -57.5l-354 -471l405 -562q63 -88 209 -106l-10 -82h-623l12 82 q75 0 119.5 13.5t71.5 47.5l-322 445l-340 -451q38 -55 207 -55l-10 -82h-557z" />
<glyph unicode="Y" horiz-adv-x="1323" d="M-4 1303l10 81h596l-12 -81q-130 -15 -193 -50l299 -542l303 540q-72 36 -208 52l10 81h526l-12 -81q-39 -1 -62.5 -4t-58 -18.5t-55.5 -43.5l-373 -682v-416q75 -42 221 -57l-10 -82h-627l12 82q132 14 209 57v402l-389 688q-45 60 -186 74z" />
<glyph unicode="Z" horiz-adv-x="1236" d="M86 100l776 1170q-24 0 -85.5 1t-98.5 1q-245 0 -354 -8q-38 -34 -66 -101t-39 -139q-28 -4 -47 -4q-15 0 -39 4l-27 319l58 50q295 -9 516 -9q166 0 422 9l18 -86l-794 -1192q59 -2 200 -2q251 0 355 2q103 128 141 278q28 4 49 4q19 0 47 -4l-18 -399q-150 6 -576 6 q-98 0 -205.5 -2t-166.5 -4l-58 -2z" />
<glyph unicode="[" horiz-adv-x="634" d="M205 -248v1782h379v-70l-238 -20v-1600l238 -20v-72h-379z" />
<glyph unicode="\" horiz-adv-x="798" d="M0 1509l123 45l676 -1757l-123 -45z" />
<glyph unicode="]" horiz-adv-x="634" d="M51 -176l238 20v1600l-238 20v70h379v-1782h-379v72z" />
<glyph unicode="^" horiz-adv-x="1079" d="M82 614l401 703h113l401 -703l-112 -55l-346 604l-344 -604z" />
<glyph unicode="_" horiz-adv-x="1103" d="M0 -104h1104v-117h-1104v117z" />
<glyph unicode="`" horiz-adv-x="440" d="M70 1427q0 30 24 53t56 23q47 0 69 -37l184 -256l-49 -53l-229 184q-29 23 -42 41.5t-13 44.5z" />
<glyph unicode="a" horiz-adv-x="1040" d="M106 238q0 143 102.5 225.5t295.5 95.5l174 12v181q0 110 -43.5 160.5t-140.5 50.5q-83 0 -129 -27t-46 -74q0 -57 68 -82q0 -51 -32.5 -77.5t-94.5 -26.5q-57 0 -92 35t-35 92q0 114 97.5 181t263.5 67q175 0 273.5 -79t98.5 -220v-617q54 -40 154 -59l-8 -76h-305 l-23 98q-66 -63 -138.5 -88.5t-162.5 -25.5q-131 0 -204 67t-73 187zM301 256q0 -180 139 -180q60 0 115 29.5t123 97.5v278l-166 -14q-98 -9 -154.5 -65.5t-56.5 -145.5z" />
<glyph unicode="b" horiz-adv-x="1126" d="M29 1354l6 65q87 14 293 76l43 -22v-576q88 154 254 154q111 0 192.5 -39t130 -111t71.5 -166t23 -213q0 -240 -119 -389t-341 -149q-138 0 -250 108q-32 -46 -45 -92h-105v1225q0 70 -35.5 98t-117.5 31zM371 188q119 -110 219 -110q65 0 112.5 27.5t73.5 68.5t41.5 104 t20 118t4.5 126q0 65 -2.5 112t-9.5 101t-22 90t-38 68t-60 47.5t-85 15.5q-55 0 -97.5 -19.5t-69.5 -57.5t-45 -82.5t-27 -105.5t-12 -115t-3 -123v-265z" />
<glyph unicode="c" horiz-adv-x="960" d="M84 514q0 263 119 396.5t354 133.5q152 0 246 -64.5t94 -168.5q0 -53 -35 -92t-82 -39q-41 0 -73 22.5t-41 57.5q28 45 28 80q0 56 -38 90.5t-99 34.5q-139 0 -203.5 -108t-64.5 -343q0 -233 60 -334.5t198 -101.5q183 0 254 194l90 -30q-37 -117 -129 -184.5t-215 -67.5 q-241 0 -352 126t-111 398z" />
<glyph unicode="d" horiz-adv-x="1136" d="M84 496q0 270 125 412.5t360 142.5q89 0 181 -37v194q0 82 -33.5 112.5t-120.5 33.5l6 65q87 14 293 76l43 -22v-1338q55 -40 154 -59l-9 -76h-317l-16 127q-88 -141 -273 -141q-195 0 -294 128.5t-99 381.5zM279 496q0 -214 53 -315t166 -101q252 0 252 438v393 q-76 45 -187 45q-134 0 -209 -120.5t-75 -339.5z" />
<glyph unicode="e" horiz-adv-x="995" d="M86 524q0 245 115 386t336 141q110 0 186.5 -31t119.5 -93t62.5 -142t22.5 -191l-45 -59h-594v-33q0 -78 4 -131.5t19.5 -113.5t43 -96t77.5 -59.5t120 -23.5q156 0 258 121l70 -70q-123 -145 -336 -145q-127 0 -217 36.5t-142.5 109t-76 168.5t-23.5 226zM289 616 q78 1 188 5t181 8l71 4q0 172 -43.5 250t-157.5 78q-121 0 -178.5 -92.5t-60.5 -252.5z" />
<glyph unicode="f" horiz-adv-x="749" d="M80 997q106 17 174 39v121q0 87 17 158.5t53 128.5t99.5 89t149.5 32q109 0 190 -59.5t81 -149.5q0 -65 -35 -101t-80 -36q-37 0 -65 23t-35 63q41 41 41 79q0 35 -30 59.5t-81 24.5q-77 0 -110 -48.5t-33 -125.5q0 -35 13 -125.5t13 -132.5h230v-114h-230v-787 q50 -37 168 -59l-8 -76h-502l9 80q88 13 145 55v787h-164z" />
<glyph unicode="g" horiz-adv-x="1069" d="M94 -203q0 111 36.5 163t133.5 106q-49 52 -49 145l182 129q-131 31 -203.5 120.5t-72.5 221.5q0 181 102 275t303 94q147 0 244 -54q82 25 82 86q0 50 -61 80q0 34 28.5 54t75.5 20q50 0 80.5 -30t30.5 -79q0 -134 -156 -192q82 -94 82 -254q0 -162 -109 -258t-297 -96 h-30l-113 -138q3 -49 40.5 -67.5t119.5 -20.5h92q204 0 299.5 -78t95.5 -198q0 -149 -116 -228t-351 -79q-232 0 -350.5 74.5t-118.5 203.5zM295 -174q0 -217 268 -217q266 0 266 217q0 174 -245 174h-189q-100 -68 -100 -174zM322 688q0 -143 48 -206.5t156 -63.5 q109 0 157 63.5t48 206.5q0 145 -49 210t-156 65t-155.5 -65t-48.5 -210z" />
<glyph unicode="h" horiz-adv-x="1202" d="M68 0l8 80q88 13 145 55v1073q0 82 -33.5 112.5t-119.5 33.5l6 65q87 14 293 76l43 -22v-553q53 61 124 96t146 35q160 0 250 -80.5t90 -225.5v-610q54 -40 154 -59l-9 -76h-485l6 76q83 12 145 59v590q0 219 -188 219q-68 0 -132 -43t-101 -113v-653q55 -40 153 -59 l-8 -76h-487z" />
<glyph unicode="i" horiz-adv-x="612" d="M76 0l8 80q88 13 145 55v635q0 82 -33 112t-120 33l6 66q87 14 293 76l43 -23v-899q55 -40 153 -59l-8 -76h-487zM197 1343q0 127 114 127q117 0 117 -127q0 -62 -29.5 -95.5t-87.5 -33.5q-114 0 -114 129z" />
<glyph unicode="j" horiz-adv-x="626" d="M-45 -307q0 51 29 86t75 35q62 0 86 -43q-32 -28 -32 -72q0 -34 22 -57t60 -23q88 0 88 143q0 72 -13.5 184t-13.5 216h188v-234q0 -67 -5 -120t-21 -108.5t-42.5 -92.5t-73 -60.5t-109.5 -23.5q-105 0 -171.5 41t-66.5 129zM102 915l7 66q85 14 292 76l43 -23v-872h-188 v608q0 82 -33.5 112t-120.5 33zM213 1343q0 127 115 127q116 0 116 -127q0 -129 -116 -129q-115 0 -115 129z" />
<glyph unicode="k" horiz-adv-x="1124" d="M72 0l8 80q88 13 145 55v1073q0 82 -33.5 112.5t-119.5 33.5l6 65q87 14 293 76l43 -22v-863l284 303q22 23 39 53.5t23 49.5l6 20h295l6 -65q-148 -7 -236 -97l-196 -202l321 -533q71 -44 199 -63l-8 -76h-316l-321 543l-96 -99v-309q55 -40 153 -59l-8 -76h-487z" />
<glyph unicode="l" horiz-adv-x="618" d="M68 0l8 80q88 13 145 55v1073q0 82 -33.5 112.5t-119.5 33.5l6 65q87 14 293 76l43 -22v-1338q55 -40 153 -59l-8 -76h-487z" />
<glyph unicode="m" horiz-adv-x="1751" d="M70 0l8 80q88 13 145 55v631q0 82 -33 112t-120 33l6 66q33 6 71.5 15.5t65.5 17.5t70 21.5t63 19.5l39 -21l16 -115q10 13 28 30t52.5 44t83 44.5t99.5 17.5q198 0 282 -144q144 144 289 144t238.5 -80.5t93.5 -251.5v-584q54 -40 153 -59l-8 -76h-485l6 76 q83 12 145 59v590q0 114 -41 166.5t-125 52.5q-73 0 -137.5 -54.5t-85.5 -117.5v-637q54 -40 154 -59l-8 -76h-486l6 76q84 12 146 59v590q0 114 -41 166.5t-125 52.5q-73 0 -137.5 -54.5t-85.5 -117.5v-637q55 -40 153 -59l-8 -76h-487z" />
<glyph unicode="n" horiz-adv-x="1216" d="M68 0l8 80q88 13 145 55v631q0 82 -33 112t-120 33l6 66q33 6 71.5 15.5t65.5 17.5t70 21.5t63 19.5l39 -21l20 -137q53 73 130 115.5t161 42.5q160 0 250 -80.5t90 -225.5v-610q54 -40 154 -59l-8 -76h-486l6 76q84 12 146 59v590q0 219 -189 219q-75 0 -144 -51.5 t-103 -132.5v-625q55 -40 153 -59l-8 -76h-487z" />
<glyph unicode="o" horiz-adv-x="1081" d="M84 518q0 261 115.5 397t341.5 136t341 -136t115 -397t-115 -397.5t-341 -136.5t-341.5 136.5t-115.5 397.5zM281 518q0 -229 61 -330.5t199 -101.5t200 102t62 330t-62 329t-200 101t-199 -100.5t-61 -329.5z" />
<glyph unicode="p" horiz-adv-x="1150" d="M59 -467l9 80q88 13 145 55v1098q0 82 -33.5 112t-120.5 33l7 66q33 6 71.5 15.5t65.5 17.5t70 21.5t63 19.5l39 -21l18 -133q90 152 281 152q195 0 294 -128.5t99 -381.5q0 -270 -125 -412.5t-360 -142.5q-88 0 -181 34v-350q55 -40 154 -59l-8 -76h-488zM401 121 q73 -43 187 -43q134 0 209 121t75 340q0 214 -53 314.5t-166 100.5q-124 0 -188 -104.5t-64 -312.5v-416z" />
<glyph unicode="q" horiz-adv-x="1128" d="M84 512q0 119 25.5 214.5t79 169.5t143.5 114.5t211 40.5q115 0 248 -105l32 90h119v-1368q55 -40 154 -59l-9 -76h-487l8 80q51 8 82 19.5t64 35.5v463q-87 -147 -252 -147q-90 0 -160.5 26t-118.5 72t-79.5 112.5t-45.5 145t-14 172.5zM285 512q0 -55 1.5 -95.5 t7 -88.5t14.5 -82t25 -67.5t38.5 -54.5t55.5 -33.5t75 -12.5q61 0 107 25.5t73 66t43.5 101t22.5 121.5t6 136v318q-114 110 -217 110q-40 0 -73 -9t-57.5 -23.5t-43.5 -39t-31.5 -48.5t-21.5 -58.5t-14 -62.5t-7.5 -68t-3 -67.5t-0.5 -67.5z" />
<glyph unicode="r" horiz-adv-x="901" d="M76 0l8 80q88 13 145 55v631q0 82 -33 112t-120 33l6 66q33 6 71.5 15.5t65.5 17.5t70 21.5t63 19.5l39 -21l23 -153q50 75 119.5 124.5t144.5 49.5q80 0 138 -47t58 -134q0 -55 -31 -96t-85 -41q-39 0 -71.5 18.5t-41.5 49.5q8 8 15.5 28t7.5 33q0 68 -64 68 q-63 0 -124.5 -94t-61.5 -199v-502q61 -40 174 -59l-8 -76h-508z" />
<glyph unicode="s" horiz-adv-x="929" d="M117 72v272l119 14q8 -97 20.5 -151t38.5 -101q75 -22 164 -22q87 0 142.5 50t55.5 122q0 43 -18.5 76t-49.5 53.5t-71.5 37t-85 31t-89 30.5t-85 40t-71.5 55.5t-49.5 81t-18.5 113.5q0 126 99 200.5t265 74.5q139 0 237.5 -63t98.5 -152q0 -115 -102 -115 q-78 0 -117 59q35 27 35 80q0 45 -48 74t-118 29q-85 0 -134.5 -40t-49.5 -108q0 -56 30 -95.5t78.5 -63t106.5 -43t116 -42.5t106.5 -54t78.5 -85.5t30 -128.5q0 -149 -102.5 -231t-288.5 -82q-76 0 -174.5 26t-148.5 58z" />
<glyph unicode="t" horiz-adv-x="731" d="M41 922v61q217 74 283 268h88v-215h250v-114h-252v-682q0 -81 18.5 -116.5t83.5 -35.5q30 0 59.5 8t41.5 14.5t36 20.5l43 -65q-102 -82 -235 -82q-136 0 -186 62.5t-50 209.5v666h-180z" />
<glyph unicode="u" horiz-adv-x="1204" d="M29 915l6 66q87 14 293 76l43 -23v-719q0 -231 190 -231q58 0 121.5 42.5t112.5 131.5v512q0 82 -33.5 112t-120.5 33l6 66q87 14 293 76l43 -23v-899q54 -40 154 -59l-9 -76h-292l-23 139q-119 -155 -276 -155q-355 0 -355 356v430q0 82 -33 112t-120 33z" />
<glyph unicode="v" horiz-adv-x="1112" d="M-2 971l6 65h492l-7 -65q-93 -11 -137 -49l234 -709l233 709q-48 35 -131 49l6 65h420l-6 -65q-136 -24 -150 -66l-333 -905h-148l-321 879q-16 41 -56 61t-102 31z" />
<glyph unicode="w" horiz-adv-x="1587" d="M-4 971l6 65h492l-7 -65q-93 -11 -137 -49l199 -672l217 749h86l235 -749l197 672q-48 35 -131 49l6 65h418l-6 -65q-133 -23 -148 -66l-305 -905h-135l-201 627l-198 -627h-135l-295 879q-14 41 -54.5 61t-103.5 31z" />
<glyph unicode="x" horiz-adv-x="1097" d="M10 0l8 80q47 4 68 7t48 14t42 30l285 375l-295 401q-38 52 -127 64l6 65h473l-10 -65q-81 -5 -133 -45l205 -281l200 264q-36 27 -67.5 42t-79.5 20l6 65h444l-10 -65q-118 -14 -158 -66l-268 -352l307 -418q15 -20 37 -31.5t39.5 -14.5t54.5 -7l-10 -82h-477l8 80 q102 11 139 37l-217 297l-221 -291q26 -21 59 -29.5t89 -13.5l-6 -80h-439z" />
<glyph unicode="y" horiz-adv-x="1126" d="M-2 969l6 67h481l-6 -65q-43 -5 -73 -15t-58 -34l256 -672l219 672q-48 35 -131 49l6 65h430l-6 -65q-143 -20 -159 -66l-383 -1108q-55 -160 -124.5 -227.5t-174.5 -67.5q-87 0 -145 48.5t-58 121.5q0 59 31 92t77 33q40 0 78 -24q-26 -37 -26 -76q0 -33 20 -54.5 t53 -21.5q47 0 83 47.5t71 155.5l53 166l-362 884q-30 72 -158 95z" />
<glyph unicode="z" horiz-adv-x="958" d="M78 84l571 852q-124 8 -166 8q-126 0 -198 -10q-21 -26 -37 -78t-23 -102q-33 -11 -63 -11q-29 0 -53 9l-21 243l55 45q19 0 163.5 -2t219.5 -2q203 0 332 6l21 -75l-580 -865q33 -2 211 -2q115 0 166 2q59 82 88 203q27 6 57 6q17 0 49 -4l-14 -262l-43 -51 q-85 6 -313 6q-106 0 -207 -2t-149 -4l-48 -2z" />
<glyph unicode="{" horiz-adv-x="587" d="M123 608v72q4 1 11 3.5t25 14t32 26.5t25 43.5t11 63.5q0 47 -27.5 185t-27.5 184q0 92 51.5 169.5t135 121t178.5 43.5v-70q-102 -7 -155.5 -79t-53.5 -171q0 -58 18.5 -157.5t18.5 -159.5q0 -84 -26.5 -150t-70.5 -102q44 -38 70.5 -105t26.5 -149q0 -59 -18.5 -159 t-18.5 -160q0 -98 54 -170t155 -78v-72q-95 0 -178.5 43.5t-135 121t-51.5 169.5q0 46 27.5 185t27.5 186q0 35 -10.5 63.5t-26 44t-31 26t-25.5 13.5z" />
<glyph unicode="|" horiz-adv-x="550" d="M205 -248v1782h141v-1782h-141z" />
<glyph unicode="}" horiz-adv-x="587" d="M51 -176q101 6 155 78t54 170q0 60 -18.5 160t-18.5 159q0 83 26 149.5t70 104.5q-44 36 -70 102t-26 150q0 60 18.5 159.5t18.5 157.5q0 99 -53.5 171t-155.5 79v70q95 0 178.5 -43.5t135 -121t51.5 -169.5q0 -46 -28 -184t-28 -185q0 -35 11 -63.5t26 -44t30.5 -26 t26.5 -13.5l11 -4v-72q-4 -1 -11 -3.5t-25.5 -14t-32 -26.5t-25 -43.5t-11.5 -63.5q0 -47 28 -186t28 -185q0 -92 -51.5 -169.5t-135 -121t-178.5 -43.5v72z" />
<glyph unicode="~" horiz-adv-x="1159" d="M82 547q136 176 293 176q64 0 228.5 -53.5t219.5 -53.5q99 0 207 89q27 -16 47 -43q-18 -29 -40.5 -56t-56.5 -58t-78.5 -50t-92.5 -19q-75 0 -243 55.5t-234 55.5q-98 0 -205 -88q-28 14 -45 45z" />
<glyph unicode="&#xa1;" horiz-adv-x="440" d="M72 -332q0 75 47 382t57 448l115 20q0 -55 -3 -207t-3 -241q0 -353 41 -531q-47 -37 -131 -37q-68 0 -95.5 43.5t-27.5 122.5zM125 834q0 47 29 78.5t77 31.5q49 0 79 -31.5t30 -78.5t-30 -80t-79 -33t-77.5 32.5t-28.5 80.5z" />
<glyph unicode="&#xa2;" horiz-adv-x="960" d="M84 651q0 211 100 337t291 149v225l12 14q34 0 76 -10v-225q148 -1 241 -66.5t93 -163.5q0 -51 -35 -88t-82 -37q-41 0 -73 21t-41 55q26 39 26 76q0 50 -37 80t-92 33v-791q170 6 238 184l90 -28q-36 -108 -124 -176t-204 -72v-229l-12 -15q-34 0 -76 10v236 q-202 18 -296.5 140t-94.5 341zM289 651q0 -83 6.5 -141t25.5 -112.5t57 -87t97 -44.5v776q-46 -11 -80 -36.5t-54 -59.5t-32 -83.5t-16 -98.5t-4 -113z" />
<glyph unicode="&#xa3;" horiz-adv-x="1175" d="M61 131q0 75 56 121.5t139 46.5q57 0 141 -25q2 16 2 54q0 90 -61 282h-193q-10 42 -10 74l15 14h163q-45 151 -45 230q0 195 117.5 301t329.5 106q65 0 126 -16t113 -48t83.5 -85t31.5 -121t-36 -112t-85 -44q-43 0 -76.5 21t-44.5 53q39 51 39 104q0 57 -45.5 94.5 t-124.5 37.5q-227 0 -227 -275q0 -85 49 -246h313q11 -46 11 -73l-15 -15h-282q28 -103 28 -172q0 -111 -38 -211q171 -59 323 -59q127 0 127 135q56 -1 89.5 -40t33.5 -97q0 -93 -66.5 -136.5t-173.5 -43.5q-37 0 -75 7.5t-62.5 14.5t-67 28.5t-55.5 28.5t-61.5 37 t-54.5 33q-96 -151 -244 -151q-78 0 -132.5 38.5t-54.5 108.5zM162 137q0 -67 84 -67q107 0 139 118q-74 29 -129 29q-43 0 -68.5 -21t-25.5 -59z" />
<glyph unicode="&#xa4;" horiz-adv-x="1161" d="M143 238l127 141q-88 108 -88 274q0 170 97 281l-136 143l86 84l144 -153q89 47 209 47t206 -47l144 153l86 -84l-135 -143q96 -107 96 -281q0 -163 -90 -274l129 -141l-86 -84l-135 149q-86 -51 -215 -51q-126 0 -220 51l-133 -149zM326 653q0 -146 64 -228.5t192 -82.5 q127 0 190.5 82.5t63.5 228.5t-63.5 229t-190.5 83q-132 0 -194 -84t-62 -228z" />
<glyph unicode="&#xa5;" horiz-adv-x="1286" d="M31 1219l10 77h555l-10 -77q-113 -13 -174 -50l264 -491l270 491q-67 36 -190 50l10 77h489l-12 -77q-38 -1 -61 -4t-55.5 -18.5t-51.5 -43.5l-213 -397h232q10 -42 10 -74l-14 -14h-275l-74 -140h353q10 -42 10 -73l-14 -15h-349v-309q69 -37 211 -53l-10 -78h-594 l10 78q132 15 199 53v309h-371q-10 42 -10 74l14 14h359l-76 140h-287q-10 42 -10 73l14 15h234l-213 389q-44 61 -180 74z" />
<glyph unicode="&#xa6;" horiz-adv-x="550" d="M205 -248v764h141v-764h-141zM205 811v723h141v-723h-141z" />
<glyph unicode="&#xa7;" horiz-adv-x="1034" d="M90 1001q0 182 119 290t313 108q163 0 255.5 -72.5t92.5 -193.5q0 -70 -30.5 -110t-85.5 -40q-47 0 -73.5 16.5t-47.5 47.5q49 49 49 122q0 66 -44.5 100t-115.5 34q-76 0 -114.5 -41.5t-38.5 -120.5q0 -60 16 -112.5t50 -101t67 -86t86 -95t88 -101.5q12 -15 43.5 -53.5 t45.5 -57t39.5 -54.5t37.5 -63.5t26.5 -65.5t20.5 -78t6 -85q0 -181 -122 -289t-316 -108q-166 0 -262.5 71.5t-96.5 190.5q0 65 33 109.5t92 44.5q47 0 73.5 -16.5t47.5 -47.5q-49 -49 -49 -123q0 -66 44.5 -99.5t117.5 -33.5q155 0 155 162q0 47 -12.5 93t-30.5 82 t-50 80.5t-58 75t-68.5 80t-68.5 81.5q-5 7 -16 20q-53 66 -77 97.5t-57.5 81.5t-47.5 85t-25 81t-11 95zM209 973q0 -64 29 -130t75 -124.5t101.5 -119t111 -124.5t101.5 -129.5t75 -145t29 -161.5q21 24 34 71t13 89q0 78 -28 150.5t-73 132t-99.5 118t-109.5 118 t-101.5 120.5t-77 137t-33.5 158q-21 -24 -34 -71t-13 -89z" />
<glyph unicode="&#xa8;" horiz-adv-x="757" d="M102 1337q0 115 105 115q104 0 104 -115q0 -116 -104 -116q-105 0 -105 116zM471 1337q0 115 102 115q107 0 107 -115q0 -116 -107 -116q-102 0 -102 116z" />
<glyph unicode="&#xa9;" horiz-adv-x="1372" d="M98 690q0 158 78.5 292t214 212t295.5 78t295.5 -78t214 -212t78.5 -292q0 -159 -78 -292.5t-213.5 -211t-296.5 -77.5t-296.5 77.5t-213.5 211t-78 292.5zM197 690q0 -136 66 -251t178.5 -182t244.5 -67t245 67t179 182t66 251t-66 251t-179 182t-245 67t-244.5 -67 t-178.5 -182t-66 -251zM416 688q0 150 78 229.5t208 79.5q101 0 165.5 -49t64.5 -117q0 -37 -22.5 -57t-51.5 -20q-25 0 -44.5 12.5t-25.5 34.5q13 26 13 47q0 33 -28.5 52.5t-74.5 19.5q-67 0 -110 -56t-43 -176q0 -113 43 -170t110 -57q115 0 168 106l62 -35 q-66 -149 -234 -149q-127 0 -202.5 78t-75.5 227z" />
<glyph unicode="&#xaa;" horiz-adv-x="737" d="M72 524v76h624v-76h-624zM72 883q0 97 70 152.5t204 64.5l105 8v106q0 76 -26 111t-85 35q-47 0 -75.5 -17t-28.5 -45q0 -25 24 -55q-3 -33 -26.5 -51t-55.5 -18q-36 0 -63 22t-27 61q0 78 71 124t191 46q117 0 182.5 -56.5t65.5 -156.5v-399q34 -24 102 -37l-6 -57h-223 l-12 53q-73 -63 -193 -63q-92 0 -143 45t-51 127zM223 895q0 -56 23.5 -85.5t66.5 -29.5q68 0 138 60v198l-99 -8q-60 -4 -94.5 -41t-34.5 -94z" />
<glyph unicode="&#xab;" horiz-adv-x="811" d="M51 518l293 330l66 -45l-170 -285l170 -299l-70 -45zM371 518l293 330l65 -45l-170 -285l170 -299l-70 -45z" />
<glyph unicode="&#xac;" horiz-adv-x="1118" d="M133 313v371h133v-371h-133zM133 684v117h862v-117h-862z" />
<glyph unicode="&#xad;" horiz-adv-x="735" d="M61 494v118h613v-118h-613z" />
<glyph unicode="&#xae;" horiz-adv-x="1372" d="M98 690q0 158 78.5 292t214 212t295.5 78t295.5 -78t214 -212t78.5 -292q0 -159 -78 -292.5t-213.5 -211t-296.5 -77.5t-296.5 77.5t-213.5 211t-78 292.5zM197 690q0 -136 66 -251t178.5 -182t244.5 -67t245 67t179 182t66 251t-66 251t-179 182t-245 67t-244.5 -67 t-178.5 -182t-66 -251zM422 397l8 49l80 21v463l-88 22l8 49h260q225 0 225 -163q0 -60 -29 -96t-95 -54q35 -19 53 -63l74 -158l71 -18l-6 -52h-168l-78 201q-18 47 -39 58.5t-75 11.5v-201l86 -21l-7 -49h-280zM623 733h28q150 0 150 105q0 50 -29.5 76t-81.5 26h-67v-207 z" />
<glyph unicode="&#xaf;" horiz-adv-x="765" d="M76 1260v116h614v-116h-614z" />
<glyph unicode="&#xb0;" horiz-adv-x="835" d="M82 1071q0 138 95.5 234t240.5 96t240.5 -96t95.5 -234t-95.5 -234t-240.5 -96t-240.5 96t-95.5 234zM233 1071q0 -110 48 -181t137 -71t136.5 71t47.5 181q0 107 -49.5 179.5t-134.5 72.5t-135 -72.5t-50 -179.5z" />
<glyph unicode="&#xb1;" horiz-adv-x="1116" d="M168 86v117h780v-117h-780zM168 594v117h317v309h133v-309h330v-117h-330v-309h-133v309h-317z" />
<glyph unicode="&#xb2;" horiz-adv-x="759" d="M86 729v88q232 191 320 304.5t88 215.5q0 140 -132 140q-60 0 -93 -31.5t-33 -77.5q0 -36 30 -80q-35 -35 -84 -35q-39 0 -66.5 26.5t-27.5 80.5q0 79 81 141t193 62q130 0 205.5 -64t75.5 -174q0 -102 -86 -215t-289 -266h410v-115h-592z" />
<glyph unicode="&#xb3;" horiz-adv-x="759" d="M74 920q0 39 26.5 60t63.5 21q42 0 78 -28q-13 -37 -13 -60q0 -48 37 -77t101 -29q68 0 104.5 39t36.5 112q0 76 -58 122.5t-169 47.5h-9v68q104 3 162 45t58 119q0 57 -32 87t-89 30t-89 -29t-32 -70q0 -24 16 -53q-42 -29 -82 -29q-35 0 -55 26t-20 69q0 72 75 122 t189 50q119 0 190.5 -56.5t71.5 -146.5q0 -135 -160 -195q180 -50 180 -207q0 -102 -82 -169.5t-213 -67.5q-132 0 -209 55t-77 144z" />
<glyph unicode="&#xb4;" horiz-adv-x="534" d="M70 1210l184 256q22 37 70 37q32 0 55.5 -23t23.5 -53q0 -26 -13 -44.5t-42 -41.5l-229 -184z" />
<glyph unicode="&#xb5;" horiz-adv-x="1208" d="M33 915l6 66q87 14 293 76l43 -23v-719q0 -231 190 -231q58 0 121.5 42.5t112.5 131.5v512q0 82 -33.5 112t-120.5 33l6 66q87 14 293 76l43 -23v-899q54 -40 154 -59l-8 -76h-293l-23 139q-119 -155 -276 -155q-90 0 -166 26v-463h-189v1223q0 82 -33 112t-120 33z" />
<glyph unicode="&#xb6;" horiz-adv-x="1085" d="M133 1004q0 187 111.5 283.5t357.5 96.5h428l-12 -81q-127 -14 -199 -58v-1182q0 -70 -13.5 -127t-35 -96t-52.5 -68.5t-62.5 -46t-69 -27t-67.5 -14t-62 -3.5q-109 0 -176.5 40t-67.5 129q0 51 29 86t75 35q62 0 86 -43q-38 -36 -38 -96q0 -41 25.5 -61.5t64.5 -20.5 q43 0 65.5 32t22.5 81v766q-202 20 -306 107.5t-104 267.5zM332 1008q0 -115 52.5 -181t158.5 -90v551q-211 -27 -211 -280zM592 -227q115 33 115 188v1325l-80 6v-1401q0 -33 -10 -68t-25 -50z" />
<glyph unicode="&#xb7;" horiz-adv-x="405" d="M100 705q0 47 29.5 78.5t77.5 31.5t78 -31.5t30 -78.5q0 -48 -29.5 -80.5t-78.5 -32.5t-78 32.5t-29 80.5z" />
<glyph unicode="&#xb8;" horiz-adv-x="460" d="M2 -305q0 36 20 61t54 25q20 0 39 -8q-9 -36 -9 -45q0 -46 29 -75.5t70 -29.5q96 0 96 111q0 83 -121 98l-41 45l88 143l58 -12l-39 -110q82 -15 125 -54.5t43 -119.5q0 -73 -60 -124t-151 -51q-99 0 -150 44.5t-51 101.5z" />
<glyph unicode="&#xb9;" horiz-adv-x="761" d="M166 1423v62q144 22 254 76l55 -23v-711l139 -36l-6 -62h-432l6 62l154 36v596h-170z" />
<glyph unicode="&#xba;" horiz-adv-x="737" d="M72 524v76h630v-76h-630zM72 1069q0 175 79 266.5t234 91.5q156 0 235.5 -92t79.5 -266q0 -176 -79.5 -267t-235.5 -91t-234.5 91t-78.5 267zM223 1069q0 -151 38 -217t124 -66q87 0 125.5 66.5t38.5 216.5q0 149 -39 215t-125 66t-124 -66t-38 -215z" />
<glyph unicode="&#xbb;" horiz-adv-x="811" d="M82 219l168 299l-168 285l65 45l293 -330l-288 -344zM401 219l168 299l-168 285l66 45l293 -330l-289 -344z" />
<glyph unicode="&#xbc;" horiz-adv-x="1632" d="M102 1253v62q144 22 254 76l56 -23v-711l139 -36l-6 -62h-432l6 62l153 36v596h-170zM393 0l625 1384l112 -51l-626 -1388zM877 254l288 561q90 0 135 -37l-286 -491h264v221q35 0 61 14.5t33 40.5h49v-278l121 -21v-65h-125v-201h-139v201h-389z" />
<glyph unicode="&#xbd;" horiz-adv-x="1632" d="M102 1253v62q144 22 254 76l56 -23v-711l139 -36l-6 -62h-432l6 62l153 36v596h-170zM393 0l625 1384l112 -51l-626 -1388zM950 2v88q232 191 320 304.5t88 215.5q0 140 -131 140q-60 0 -93.5 -31.5t-33.5 -77.5q0 -37 30 -80q-35 -35 -83 -35q-40 0 -67.5 26.5 t-27.5 80.5q0 79 81.5 141t193.5 62q130 0 205 -64t75 -174q0 -102 -86 -215t-288 -266h409v-115h-592z" />
<glyph unicode="&#xbe;" horiz-adv-x="1632" d="M90 750q0 39 26.5 60t63.5 21q42 0 78 -28q-12 -35 -12 -60q0 -48 36.5 -77t100.5 -29q68 0 104.5 39t36.5 112q0 76 -58 122.5t-169 47.5h-8v68q104 3 161.5 45t57.5 119q0 57 -32 87t-89 30t-89 -29t-32 -70q0 -22 17 -53q-42 -29 -82 -29q-35 0 -55.5 26t-20.5 69 q0 72 75 122t189 50q119 0 190.5 -56.5t71.5 -146.5q0 -61 -33.5 -110.5t-125.5 -84.5q180 -50 180 -207q0 -102 -82 -169.5t-213 -67.5q-132 0 -209.5 55t-77.5 144zM459 0l624 1384l113 -51l-627 -1388zM901 256l289 561q90 0 135 -37l-287 -491h265v221q35 0 61 14.5 t33 40.5h49v-278l121 -21v-65h-125v-201h-139v201h-390z" />
<glyph unicode="&#xbf;" horiz-adv-x="802" d="M51 -201q0 62 19.5 118t51 98t69 80.5t75.5 73t69.5 67.5t51 72t19.5 79q0 39 -13 96q47 37 96 37q52 0 80.5 -40t28.5 -97q0 -60 -20.5 -111.5t-53.5 -89.5t-72.5 -73t-79.5 -69.5t-73 -72t-53.5 -87t-20.5 -107.5q0 -72 52.5 -116t128.5 -44q67 0 111 27.5t44 85.5 q0 35 -24 79q45 66 106 66q109 0 109 -127q0 -57 -30 -101.5t-79.5 -70.5t-107 -39.5t-119.5 -13.5q-166 0 -265.5 67.5t-99.5 212.5zM385 834q0 47 29.5 78.5t77.5 31.5t78 -31.5t30 -78.5q0 -48 -29.5 -80.5t-78.5 -32.5t-78 32.5t-29 80.5z" />
<glyph unicode="&#xc0;" horiz-adv-x="1452" d="M0 0l12 82q110 15 168 57l455 1247h168l491 -1249q51 -38 158 -55l-10 -82h-584l12 82q131 15 195 55l-125 328h-498l-116 -330q67 -37 204 -53l-10 -82h-520zM483 580h414l-215 561zM504 1714q0 30 24 53t56 23q47 0 69 -37l185 -256l-50 -53l-229 184q-29 23 -42 41.5 t-13 44.5z" />
<glyph unicode="&#xc1;" horiz-adv-x="1452" d="M0 0l12 82q110 15 168 57l455 1247h168l491 -1249q51 -38 158 -55l-10 -82h-584l12 82q131 15 195 55l-125 328h-498l-116 -330q67 -37 204 -53l-10 -82h-520zM483 580h414l-215 561zM588 1497l184 256q22 37 70 37q32 0 56 -23t24 -53q0 -25 -13.5 -43.5t-42.5 -42.5 l-229 -184z" />
<glyph unicode="&#xc2;" horiz-adv-x="1452" d="M0 0l12 82q110 15 168 57l455 1247h168l491 -1249q51 -38 158 -55l-10 -82h-584l12 82q131 15 195 55l-125 328h-498l-116 -330q67 -37 204 -53l-10 -82h-520zM442 1518l205 235q27 35 68 35t69 -35l205 -235l-49 -54l-225 170l-223 -170zM483 580h414l-215 561z" />
<glyph unicode="&#xc3;" horiz-adv-x="1452" d="M0 0l12 82q110 15 168 57l455 1247h168l491 -1249q51 -38 158 -55l-10 -82h-584l12 82q131 15 195 55l-125 328h-498l-116 -330q67 -37 204 -53l-10 -82h-520zM373 1554q11 27 29 55t45 58.5t65.5 50t81.5 19.5q49 0 129.5 -44t122.5 -44t75 23t70 65q35 -14 72 -43 q-12 -27 -30 -55.5t-45 -59t-64 -49.5t-76 -19q-57 0 -137 44t-123 44q-40 0 -73.5 -23t-70.5 -65q-33 8 -71 43zM483 580h414l-215 561z" />
<glyph unicode="&#xc4;" horiz-adv-x="1452" d="M0 0l12 82q110 15 168 57l455 1247h168l491 -1249q51 -38 158 -55l-10 -82h-584l12 82q131 15 195 55l-125 328h-498l-116 -330q67 -37 204 -53l-10 -82h-520zM426 1624q0 115 104 115q105 0 105 -115q0 -56 -26.5 -86.5t-78.5 -30.5q-104 0 -104 117zM483 580h414 l-215 561zM795 1624q0 115 102 115q107 0 107 -115q0 -117 -107 -117q-102 0 -102 117z" />
<glyph unicode="&#xc5;" horiz-adv-x="1452" d="M0 0l12 82q110 15 168 57l455 1247h168l491 -1249q51 -38 158 -55l-10 -82h-584l12 82q131 15 195 55l-125 328h-498l-116 -330q67 -37 204 -53l-10 -82h-520zM483 580h414l-215 561zM526 1618q0 79 51.5 130.5t135.5 51.5q85 0 138.5 -51.5t53.5 -130.5t-53.5 -130.5 t-138.5 -51.5q-84 0 -135.5 51.5t-51.5 130.5zM618 1618q0 -40 27 -68t68 -28t70.5 28t29.5 68t-29.5 69t-70.5 29t-68 -29t-27 -69z" />
<glyph unicode="&#xc6;" horiz-adv-x="1820" d="M0 0l12 82q59 11 98.5 41t75.5 94l654 1167h850l18 -331q-33 -11 -61 -11q-23 0 -33 2q-27 131 -103 224h-419v-502h266q47 0 80.5 41t42.5 108h69v-430h-69q-9 81 -41.5 123.5t-81.5 42.5h-266v-526h450q76 101 105 248q28 4 43 4q11 0 47 -4l-21 -373h-1030l12 82 q59 7 116.5 22.5t82.5 34.5v512h-313l-285 -526q74 -32 186 -43l-10 -82h-475zM647 766h250v459z" />
<glyph unicode="&#xc7;" horiz-adv-x="1239" d="M98 688q0 350 157.5 529.5t469.5 179.5q79 0 154.5 -16.5t141.5 -49t106 -90t40 -131.5t-38 -123t-89 -49q-46 0 -81.5 24t-45.5 62q41 58 41 111q0 74 -62 111.5t-165 37.5q-219 0 -315.5 -140.5t-96.5 -455.5t94.5 -452.5t315.5 -137.5q26 0 53.5 3t76 18t89 40 t82.5 76t66 119l102 -37q-32 -89 -88 -155t-109 -98.5t-115.5 -51.5t-95.5 -22.5t-61 -3.5q-37 0 -55 2l-31 -90q82 -15 125 -54.5t43 -119.5q0 -73 -60 -124t-151 -51q-99 0 -150 44.5t-51 101.5q0 36 20 61t54 25q20 0 39 -8q-8 -32 -8 -45q0 -46 28.5 -75.5t69.5 -29.5 q96 0 96 111q0 83 -121 98l-41 45l70 117q-261 29 -382.5 198t-121.5 496z" />
<glyph unicode="&#xc8;" horiz-adv-x="1296" d="M88 0l12 82q59 7 116.5 22.5t82.5 34.5v1106q-75 43 -211 58l10 81h1045l18 -331q-33 -11 -61 -11q-23 0 -33 2q-27 132 -102 224h-471v-510l317 22q50 4 80 49t43 97h70v-430h-70q-4 22 -7.5 36.5t-13.5 39t-22 40t-33.5 28.5t-48.5 15l-315 23v-553h524q75 99 104 248 q28 4 43 4q11 0 47 -4l-20 -373h-1104zM479 1714q0 30 24 53t56 23q48 0 70 -37l184 -256l-49 -53l-229 184q-29 24 -42.5 42.5t-13.5 43.5z" />
<glyph unicode="&#xc9;" horiz-adv-x="1296" d="M88 0l12 82q59 7 116.5 22.5t82.5 34.5v1106q-75 43 -211 58l10 81h1045l18 -331q-33 -11 -61 -11q-23 0 -33 2q-27 132 -102 224h-471v-510l317 22q50 4 80 49t43 97h70v-430h-70q-4 22 -7.5 36.5t-13.5 39t-22 40t-33.5 28.5t-48.5 15l-315 23v-553h524q75 99 104 248 q28 4 43 4q11 0 47 -4l-20 -373h-1104zM563 1497l185 256q22 37 69 37q32 0 56 -23t24 -53q0 -26 -13 -44.5t-42 -41.5l-230 -184z" />
<glyph unicode="&#xca;" horiz-adv-x="1296" d="M88 0l12 82q59 7 116.5 22.5t82.5 34.5v1106q-75 43 -211 58l10 81h1045l18 -331q-33 -11 -61 -11q-23 0 -33 2q-27 132 -102 224h-471v-510l317 22q50 4 80 49t43 97h70v-430h-70q-4 22 -7.5 36.5t-13.5 39t-22 40t-33.5 28.5t-48.5 15l-315 23v-553h524q75 99 104 248 q28 4 43 4q11 0 47 -4l-20 -373h-1104zM418 1518l205 235q27 35 67 35q42 0 70 -35l205 -235l-50 -54l-225 170l-223 -170z" />
<glyph unicode="&#xcb;" horiz-adv-x="1296" d="M88 0l12 82q59 7 116.5 22.5t82.5 34.5v1106q-75 43 -211 58l10 81h1045l18 -331q-33 -11 -61 -11q-23 0 -33 2q-27 132 -102 224h-471v-510l317 22q50 4 80 49t43 97h70v-430h-70q-4 22 -7.5 36.5t-13.5 39t-22 40t-33.5 28.5t-48.5 15l-315 23v-553h524q75 99 104 248 q28 4 43 4q11 0 47 -4l-20 -373h-1104zM401 1624q0 115 105 115q104 0 104 -115q0 -117 -104 -117q-105 0 -105 117zM770 1624q0 115 102 115q107 0 107 -115q0 -117 -107 -117q-102 0 -102 117z" />
<glyph unicode="&#xcc;" horiz-adv-x="821" d="M102 0l13 82q127 14 198 57v1106q-75 43 -211 58l11 81h606l-12 -81q-127 -14 -199 -58v-1106q73 -42 211 -57l-10 -82h-607zM188 1714q0 30 24 53t56 23q48 0 70 -37l184 -256l-49 -53l-229 184q-29 24 -42.5 42.5t-13.5 43.5z" />
<glyph unicode="&#xcd;" horiz-adv-x="821" d="M102 0l13 82q127 14 198 57v1106q-75 43 -211 58l11 81h606l-12 -81q-127 -14 -199 -58v-1106q73 -42 211 -57l-10 -82h-607zM272 1497l185 256q22 37 69 37q32 0 56 -23t24 -53q0 -26 -13 -44.5t-42 -41.5l-229 -184z" />
<glyph unicode="&#xce;" horiz-adv-x="821" d="M102 0l13 82q127 14 198 57v1106q-75 43 -211 58l11 81h606l-12 -81q-127 -14 -199 -58v-1106q73 -42 211 -57l-10 -82h-607zM127 1518l205 235q27 35 67 35q42 0 70 -35l205 -235l-49 -54l-226 170l-223 -170z" />
<glyph unicode="&#xcf;" horiz-adv-x="821" d="M102 0l13 82q127 14 198 57v1106q-75 43 -211 58l11 81h606l-12 -81q-127 -14 -199 -58v-1106q73 -42 211 -57l-10 -82h-607zM111 1624q0 115 104 115t104 -115q0 -117 -104 -117t-104 117zM479 1624q0 115 103 115q106 0 106 -115q0 -117 -106 -117q-103 0 -103 117z " />
<glyph unicode="&#xd0;" horiz-adv-x="1460" d="M88 653v105h217v487q-75 43 -211 58l10 81h500q381 0 570.5 -166.5t189.5 -525.5q0 -364 -190 -528t-582 -164h-498l12 82q129 15 199 55v516h-217zM500 109h129q128 0 220.5 29t160.5 95t101.5 180t33.5 279q0 163 -33 276.5t-100 181t-158.5 97t-218.5 29.5 q-61 0 -95.5 -1t-39.5 -1v-516h264l14 -15q-10 -40 -37 -90h-241v-544z" />
<glyph unicode="&#xd1;" horiz-adv-x="1583" d="M78 0l12 82q129 14 199 57v1106q-75 43 -211 58l10 81h365l735 -1022v883q-75 43 -211 58l10 81h553l-12 -81q-127 -14 -199 -58v-1245h-133l-766 1065v-926q73 -42 211 -57l-10 -82h-553zM457 1554q11 27 29 55t45 58.5t65.5 50t81.5 19.5q49 0 129.5 -44t122.5 -44 t75 23t70 65q35 -14 72 -43q-12 -27 -30 -55.5t-45 -59t-64 -49.5t-76 -19q-57 0 -137 44t-123 44q-40 0 -73.5 -23t-70.5 -65q-33 8 -71 43z" />
<glyph unicode="&#xd2;" d="M98 692q0 348 148.5 525.5t458.5 177.5t458 -177t148 -526t-148 -526.5t-458 -177.5t-458.5 177.5t-148.5 526.5zM315 692q0 -316 87.5 -455t302.5 -139q216 0 303.5 139t87.5 455q0 315 -87.5 453.5t-303.5 138.5t-303 -138t-87 -454zM494 1714q0 30 23.5 53t55.5 23 q48 0 70 -37l184 -256l-49 -53l-229 184q-29 23 -42 41.5t-13 44.5z" />
<glyph unicode="&#xd3;" d="M98 692q0 348 148.5 525.5t458.5 177.5t458 -177t148 -526t-148 -526.5t-458 -177.5t-458.5 177.5t-148.5 526.5zM315 692q0 -316 87.5 -455t302.5 -139q216 0 303.5 139t87.5 455q0 315 -87.5 453.5t-303.5 138.5t-303 -138t-87 -454zM578 1497l184 256q22 37 69 37 q32 0 56 -23t24 -53q0 -26 -13 -44.5t-42 -41.5l-229 -184z" />
<glyph unicode="&#xd4;" d="M98 692q0 348 148.5 525.5t458.5 177.5t458 -177t148 -526t-148 -526.5t-458 -177.5t-458.5 177.5t-148.5 526.5zM315 692q0 -316 87.5 -455t302.5 -139q216 0 303.5 139t87.5 455q0 315 -87.5 453.5t-303.5 138.5t-303 -138t-87 -454zM432 1518l205 235q27 35 68 35 t69 -35l205 -235l-49 -54l-225 170l-224 -170z" />
<glyph unicode="&#xd5;" d="M98 692q0 348 148.5 525.5t458.5 177.5t458 -177t148 -526t-148 -526.5t-458 -177.5t-458.5 177.5t-148.5 526.5zM315 692q0 -316 87.5 -455t302.5 -139q216 0 303.5 139t87.5 455q0 315 -87.5 453.5t-303.5 138.5t-303 -138t-87 -454zM362 1554q11 27 29 55t45.5 58.5 t66 50t81.5 19.5q49 0 129.5 -44t122.5 -44t75 23t70 65q35 -14 72 -43q-12 -27 -30 -55.5t-45 -59t-64 -49.5t-76 -19q-57 0 -137 44t-123 44q-40 0 -73.5 -23t-70.5 -65q-34 9 -72 43z" />
<glyph unicode="&#xd6;" d="M98 692q0 348 148.5 525.5t458.5 177.5t458 -177t148 -526t-148 -526.5t-458 -177.5t-458.5 177.5t-148.5 526.5zM315 692q0 -316 87.5 -455t302.5 -139q216 0 303.5 139t87.5 455q0 315 -87.5 453.5t-303.5 138.5t-303 -138t-87 -454zM416 1624q0 115 104 115 q105 0 105 -115q0 -56 -26.5 -86.5t-78.5 -30.5q-104 0 -104 117zM784 1624q0 115 103 115q106 0 106 -115q0 -117 -106 -117q-103 0 -103 117z" />
<glyph unicode="&#xd7;" horiz-adv-x="1116" d="M154 279l311 307l-305 303l90 94l307 -305l309 305l90 -94l-305 -303l312 -307l-91 -95l-315 310l-313 -310z" />
<glyph unicode="&#xd8;" d="M98 692q0 348 148.5 525.5t458.5 177.5q236 0 380 -105l99 135l16 2q22 -13 57 -53l-106 -145q160 -175 160 -537q0 -349 -148 -526.5t-458 -177.5q-241 0 -381 104l-103 -139l-16 -2q-29 20 -58 53l109 150q-158 172 -158 538zM315 692q0 -255 52 -387l626 860 q-91 119 -288 119q-216 0 -303 -138t-87 -454zM416 219q90 -121 289 -121q216 0 303.5 139t87.5 455q0 250 -54 387z" />
<glyph unicode="&#xd9;" horiz-adv-x="1581" d="M70 1303l10 81h610l-12 -81q-126 -16 -199 -58v-788q0 -191 83.5 -275t262.5 -84q174 0 270.5 96t96.5 275v776q-73 43 -211 58l10 81h553l-12 -81q-126 -16 -199 -58v-776q0 -233 -132 -359t-376 -126q-287 0 -415.5 113t-128.5 360v788q-73 43 -211 58zM627 1714 q0 30 24 53t56 23q47 0 69 -37l185 -256l-50 -53l-229 184q-29 23 -42 41.5t-13 44.5z" />
<glyph unicode="&#xda;" horiz-adv-x="1581" d="M70 1303l10 81h610l-12 -81q-126 -16 -199 -58v-788q0 -191 83.5 -275t262.5 -84q174 0 270.5 96t96.5 275v776q-73 43 -211 58l10 81h553l-12 -81q-126 -16 -199 -58v-776q0 -233 -132 -359t-376 -126q-287 0 -415.5 113t-128.5 360v788q-73 43 -211 58zM711 1497 l184 256q22 37 70 37q32 0 55.5 -23t23.5 -53q0 -26 -13 -44.5t-42 -41.5l-229 -184z" />
<glyph unicode="&#xdb;" horiz-adv-x="1581" d="M70 1303l10 81h610l-12 -81q-126 -16 -199 -58v-788q0 -191 83.5 -275t262.5 -84q174 0 270.5 96t96.5 275v776q-73 43 -211 58l10 81h553l-12 -81q-126 -16 -199 -58v-776q0 -233 -132 -359t-376 -126q-287 0 -415.5 113t-128.5 360v788q-73 43 -211 58zM565 1518 l205 235q27 35 68 35t69 -35l205 -235l-49 -54l-225 170l-224 -170z" />
<glyph unicode="&#xdc;" horiz-adv-x="1581" d="M70 1303l10 81h610l-12 -81q-126 -16 -199 -58v-788q0 -191 83.5 -275t262.5 -84q174 0 270.5 96t96.5 275v776q-73 43 -211 58l10 81h553l-12 -81q-126 -16 -199 -58v-776q0 -233 -132 -359t-376 -126q-287 0 -415.5 113t-128.5 360v788q-73 43 -211 58zM549 1624 q0 115 104 115q105 0 105 -115q0 -56 -26.5 -86.5t-78.5 -30.5q-104 0 -104 117zM918 1624q0 115 102 115q106 0 106 -115q0 -117 -106 -117q-102 0 -102 117z" />
<glyph unicode="&#xdd;" horiz-adv-x="1323" d="M-4 1303l10 81h596l-12 -81q-130 -15 -193 -50l299 -542l303 540q-72 36 -208 52l10 81h526l-12 -81q-39 -1 -62.5 -4t-58 -18.5t-55.5 -43.5l-373 -682v-416q75 -42 221 -57l-10 -82h-627l12 82q132 14 209 57v402l-389 688q-45 60 -186 74zM575 1497l185 256 q22 37 69 37q32 0 56 -23t24 -53q0 -26 -13 -44.5t-42 -41.5l-229 -184z" />
<glyph unicode="&#xde;" horiz-adv-x="1249" d="M90 0l12 82q129 14 199 57v1106q-75 43 -211 58l10 81h607l-13 -81q-125 -14 -198 -58v-155h172q116 0 205.5 -20.5t159 -65t106.5 -122t37 -186.5q0 -393 -558 -393h-122v-164q73 -42 211 -57l-11 -82h-606zM496 403h143q160 0 250 72t90 221q0 293 -322 293 q-36 0 -72.5 -2.5t-60 -5t-28.5 -2.5v-576z" />
<glyph unicode="&#xdf;" horiz-adv-x="1245" d="M72 0l8 80q53 8 83 19t62 36v1002q0 181 105.5 278.5t300.5 97.5q196 0 303.5 -86.5t107.5 -244.5q0 -104 -85 -204t-220 -159q203 -45 322 -162.5t119 -277.5q0 -169 -107 -280t-268 -111q-297 0 -297 180q0 57 34.5 92t86.5 35q42 0 84 -23q-19 -46 -19 -79 q0 -49 32 -79t93 -30q79 0 122.5 76t43.5 217q0 162 -97.5 249.5t-312.5 118.5v117q105 19 190 117.5t85 202.5q0 114 -55.5 174.5t-159.5 60.5q-122 0 -170.5 -84.5t-48.5 -296.5v-1036h-342z" />
<glyph unicode="&#xe0;" horiz-adv-x="1054" d="M111 238q0 143 102 225.5t295 95.5l174 12v181q0 110 -43.5 160.5t-140.5 50.5q-83 0 -128.5 -26.5t-45.5 -74.5q0 -57 67 -82q0 -51 -32.5 -77.5t-94.5 -26.5q-57 0 -92 35t-35 92q0 114 97.5 181t263.5 67q175 0 273.5 -79t98.5 -220v-617q54 -40 154 -59l-8 -76h-305 l-23 98q-66 -63 -138.5 -88.5t-162.5 -25.5q-130 0 -203 67t-73 187zM305 256q0 -180 139 -180q60 0 115 29.5t123 97.5v278l-166 -14q-98 -9 -154.5 -65.5t-56.5 -145.5zM305 1427q0 30 24 53t56 23q48 0 70 -37l184 -256l-49 -53l-230 184q-29 23 -42 41.5t-13 44.5z" />
<glyph unicode="&#xe1;" horiz-adv-x="1054" d="M111 238q0 143 102 225.5t295 95.5l174 12v181q0 110 -43.5 160.5t-140.5 50.5q-83 0 -128.5 -26.5t-45.5 -74.5q0 -57 67 -82q0 -51 -32.5 -77.5t-94.5 -26.5q-57 0 -92 35t-35 92q0 114 97.5 181t263.5 67q175 0 273.5 -79t98.5 -220v-617q54 -40 154 -59l-8 -76h-305 l-23 98q-66 -63 -138.5 -88.5t-162.5 -25.5q-130 0 -203 67t-73 187zM305 256q0 -180 139 -180q60 0 115 29.5t123 97.5v278l-166 -14q-98 -9 -154.5 -65.5t-56.5 -145.5zM389 1210l184 256q22 37 70 37q32 0 56 -23t24 -53q0 -26 -13 -44.5t-42 -41.5l-230 -184z" />
<glyph unicode="&#xe2;" horiz-adv-x="1054" d="M111 238q0 143 102 225.5t295 95.5l174 12v181q0 110 -43.5 160.5t-140.5 50.5q-83 0 -128.5 -26.5t-45.5 -74.5q0 -57 67 -82q0 -51 -32.5 -77.5t-94.5 -26.5q-57 0 -92 35t-35 92q0 114 97.5 181t263.5 67q175 0 273.5 -79t98.5 -220v-617q54 -40 154 -59l-8 -76h-305 l-23 98q-66 -63 -138.5 -88.5t-162.5 -25.5q-130 0 -203 67t-73 187zM244 1231l205 235q27 35 67 35q42 0 70 -35l205 -235l-50 -53l-225 170l-223 -170zM305 256q0 -180 139 -180q60 0 115 29.5t123 97.5v278l-166 -14q-98 -9 -154.5 -65.5t-56.5 -145.5z" />
<glyph unicode="&#xe3;" horiz-adv-x="1054" d="M111 238q0 143 102 225.5t295 95.5l174 12v181q0 110 -43.5 160.5t-140.5 50.5q-83 0 -128.5 -26.5t-45.5 -74.5q0 -57 67 -82q0 -51 -32.5 -77.5t-94.5 -26.5q-57 0 -92 35t-35 92q0 114 97.5 181t263.5 67q175 0 273.5 -79t98.5 -220v-617q54 -40 154 -59l-8 -76h-305 l-23 98q-66 -63 -138.5 -88.5t-162.5 -25.5q-130 0 -203 67t-73 187zM174 1268q11 27 29 55t45 58.5t65.5 49.5t81.5 19q49 0 129.5 -44t122.5 -44t75.5 23t70.5 65q33 -13 71 -43q-12 -27 -30 -55.5t-45 -58.5t-64 -49t-76 -19q-57 0 -137 44t-123 44q-40 0 -73 -23 t-70 -65q-34 9 -72 43zM305 256q0 -180 139 -180q60 0 115 29.5t123 97.5v278l-166 -14q-98 -9 -154.5 -65.5t-56.5 -145.5z" />
<glyph unicode="&#xe4;" horiz-adv-x="1054" d="M111 238q0 143 102 225.5t295 95.5l174 12v181q0 110 -43.5 160.5t-140.5 50.5q-83 0 -128.5 -26.5t-45.5 -74.5q0 -57 67 -82q0 -51 -32.5 -77.5t-94.5 -26.5q-57 0 -92 35t-35 92q0 114 97.5 181t263.5 67q175 0 273.5 -79t98.5 -220v-617q54 -40 154 -59l-8 -76h-305 l-23 98q-66 -63 -138.5 -88.5t-162.5 -25.5q-130 0 -203 67t-73 187zM227 1337q0 115 105 115q104 0 104 -115q0 -116 -104 -116q-105 0 -105 116zM305 256q0 -180 139 -180q60 0 115 29.5t123 97.5v278l-166 -14q-98 -9 -154.5 -65.5t-56.5 -145.5zM596 1337q0 115 102 115 q107 0 107 -115q0 -116 -107 -116q-102 0 -102 116z" />
<glyph unicode="&#xe5;" horiz-adv-x="1054" d="M111 238q0 143 102 225.5t295 95.5l174 12v181q0 110 -43.5 160.5t-140.5 50.5q-83 0 -128.5 -26.5t-45.5 -74.5q0 -57 67 -82q0 -51 -32.5 -77.5t-94.5 -26.5q-57 0 -92 35t-35 92q0 114 97.5 181t263.5 67q175 0 273.5 -79t98.5 -220v-617q54 -40 154 -59l-8 -76h-305 l-23 98q-66 -63 -138.5 -88.5t-162.5 -25.5q-130 0 -203 67t-73 187zM305 256q0 -180 139 -180q60 0 115 29.5t123 97.5v278l-166 -14q-98 -9 -154.5 -65.5t-56.5 -145.5zM328 1331q0 79 51 130.5t135 51.5q85 0 139 -51.5t54 -130.5t-54 -130.5t-139 -51.5q-84 0 -135 51.5 t-51 130.5zM420 1331q0 -40 26.5 -68t67.5 -28t70.5 28t29.5 68t-29.5 69.5t-70.5 29.5q-40 0 -67 -29t-27 -70z" />
<glyph unicode="&#xe6;" horiz-adv-x="1589" d="M111 238q0 143 102 225.5t295 95.5l174 12v181q0 110 -43.5 160.5t-140.5 50.5q-83 0 -128.5 -26.5t-45.5 -74.5q0 -57 67 -82q0 -51 -32.5 -77.5t-94.5 -26.5q-57 0 -92 35t-35 92q0 114 97.5 181t263.5 67q225 0 317 -125q116 125 315 125q110 0 186.5 -31t120 -93 t63 -142t22.5 -191l-45 -59h-594v-33q0 -78 4 -131.5t19.5 -113.5t43 -96t77.5 -59.5t120 -23.5q156 0 258 121l70 -70q-123 -145 -336 -145q-277 0 -379 184q-84 -99 -171 -141.5t-202 -42.5q-130 0 -203 67t-73 187zM305 256q0 -180 139 -180q122 0 238 127v278l-166 -14 q-98 -9 -154.5 -65.5t-56.5 -145.5zM883 616q78 1 188 5t181 8l71 4q0 172 -43.5 250t-157.5 78q-121 0 -178.5 -92.5t-60.5 -252.5z" />
<glyph unicode="&#xe7;" horiz-adv-x="960" d="M84 514q0 263 119 396.5t354 133.5q152 0 246 -64.5t94 -168.5q0 -53 -35 -92t-82 -39q-41 0 -73 22.5t-41 57.5q28 45 28 80q0 56 -38 90.5t-99 34.5q-139 0 -203.5 -108t-64.5 -343q0 -233 60 -334.5t198 -101.5q183 0 254 194l90 -30q-37 -114 -125 -180.5t-207 -71.5 l-33 -92q82 -15 125 -54.5t43 -119.5q0 -73 -60 -124t-151 -51q-99 0 -149.5 44.5t-50.5 101.5q0 36 19.5 61t53.5 25q20 0 39 -8q-8 -32 -8 -45q0 -46 28.5 -75.5t69.5 -29.5q97 0 97 111q0 83 -121 98l-41 45l69 115q-210 13 -307.5 139t-97.5 383z" />
<glyph unicode="&#xe8;" horiz-adv-x="995" d="M86 524q0 245 115 386t336 141q110 0 186.5 -31t119.5 -93t62.5 -142t22.5 -191l-45 -59h-594v-33q0 -78 4 -131.5t19.5 -113.5t43 -96t77.5 -59.5t120 -23.5q156 0 258 121l70 -70q-123 -145 -336 -145q-127 0 -217 36.5t-142.5 109t-76 168.5t-23.5 226zM289 616 q78 1 188 5t181 8l71 4q0 172 -43.5 250t-157.5 78q-121 0 -178.5 -92.5t-60.5 -252.5zM326 1427q0 30 24 53t56 23q47 0 69 -37l184 -256l-49 -53l-229 184q-29 23 -42 41.5t-13 44.5z" />
<glyph unicode="&#xe9;" horiz-adv-x="995" d="M86 524q0 245 115 386t336 141q110 0 186.5 -31t119.5 -93t62.5 -142t22.5 -191l-45 -59h-594v-33q0 -78 4 -131.5t19.5 -113.5t43 -96t77.5 -59.5t120 -23.5q156 0 258 121l70 -70q-123 -145 -336 -145q-127 0 -217 36.5t-142.5 109t-76 168.5t-23.5 226zM289 616 q78 1 188 5t181 8l71 4q0 172 -43.5 250t-157.5 78q-121 0 -178.5 -92.5t-60.5 -252.5zM410 1210l184 256q22 37 70 37q32 0 55.5 -23t23.5 -53q0 -26 -13 -44.5t-42 -41.5l-229 -184z" />
<glyph unicode="&#xea;" horiz-adv-x="995" d="M86 524q0 245 115 386t336 141q110 0 186.5 -31t119.5 -93t62.5 -142t22.5 -191l-45 -59h-594v-33q0 -78 4 -131.5t19.5 -113.5t43 -96t77.5 -59.5t120 -23.5q156 0 258 121l70 -70q-123 -145 -336 -145q-127 0 -217 36.5t-142.5 109t-76 168.5t-23.5 226zM264 1231 l205 235q27 35 68 35t69 -35l205 -235l-49 -53l-225 170l-224 -170zM289 616q78 1 188 5t181 8l71 4q0 172 -43.5 250t-157.5 78q-121 0 -178.5 -92.5t-60.5 -252.5z" />
<glyph unicode="&#xeb;" horiz-adv-x="995" d="M86 524q0 245 115 386t336 141q110 0 186.5 -31t119.5 -93t62.5 -142t22.5 -191l-45 -59h-594v-33q0 -78 4 -131.5t19.5 -113.5t43 -96t77.5 -59.5t120 -23.5q156 0 258 121l70 -70q-123 -145 -336 -145q-127 0 -217 36.5t-142.5 109t-76 168.5t-23.5 226zM248 1337 q0 115 104 115q105 0 105 -115q0 -116 -105 -116q-104 0 -104 116zM289 616q78 1 188 5t181 8l71 4q0 172 -43.5 250t-157.5 78q-121 0 -178.5 -92.5t-60.5 -252.5zM616 1337q0 115 103 115q106 0 106 -115q0 -116 -106 -116q-103 0 -103 116z" />
<glyph unicode="&#xec;" horiz-adv-x="612" d="M76 0l8 80q88 13 145 55v635q0 82 -33 112t-120 33l6 66q87 14 293 76l43 -23v-899q55 -40 153 -59l-8 -76h-487zM82 1427q0 30 24 53t56 23q47 0 69 -37l185 -256l-49 -53l-230 184q-29 23 -42 41.5t-13 44.5z" />
<glyph unicode="&#xed;" horiz-adv-x="612" d="M76 0l8 80q88 13 145 55v635q0 82 -33 112t-120 33l6 66q87 14 293 76l43 -23v-899q55 -40 153 -59l-8 -76h-487zM166 1210l184 256q22 37 70 37q32 0 56 -23t24 -53q0 -25 -13.5 -43.5t-42.5 -42.5l-229 -184z" />
<glyph unicode="&#xee;" horiz-adv-x="612" d="M20 1231l205 235q27 35 68 35t69 -35l205 -235l-49 -53l-225 170l-223 -170zM76 0l8 80q88 13 145 55v635q0 82 -33 112t-120 33l6 66q87 14 293 76l43 -23v-899q55 -40 153 -59l-8 -76h-487z" />
<glyph unicode="&#xef;" horiz-adv-x="612" d="M4 1337q0 115 105 115q104 0 104 -115q0 -116 -104 -116q-105 0 -105 116zM76 0l8 80q88 13 145 55v635q0 82 -33 112t-120 33l6 66q87 14 293 76l43 -23v-899q55 -40 153 -59l-8 -76h-487zM373 1337q0 115 102 115q107 0 107 -115q0 -116 -107 -116q-102 0 -102 116z " />
<glyph unicode="&#xf0;" horiz-adv-x="1099" d="M86 496q0 270 125 412.5t360 142.5q87 0 174 -33q-53 149 -170 248l-323 -121l-37 88l260 104q-86 52 -209 101l39 94q186 -64 309 -137l252 102l45 -104l-190 -72q145 -117 210.5 -299.5t65.5 -503.5q0 -261 -115 -396.5t-341 -135.5q-225 0 -340 132t-115 378zM281 496 q0 -209 62 -308.5t198 -99.5q138 0 200 101t62 329q0 253 -25 381q-30 18 -50.5 27.5t-64.5 19.5t-98 10q-134 0 -209 -120.5t-75 -339.5z" />
<glyph unicode="&#xf1;" horiz-adv-x="1216" d="M68 0l8 80q88 13 145 55v631q0 82 -33 112t-120 33l6 66q33 6 71.5 15.5t65.5 17.5t70 21.5t63 19.5l39 -21l20 -137q53 73 130 115.5t161 42.5q160 0 250 -80.5t90 -225.5v-610q54 -40 154 -59l-8 -76h-486l6 76q84 12 146 59v590q0 219 -189 219q-75 0 -144 -51.5 t-103 -132.5v-625q55 -40 153 -59l-8 -76h-487zM285 1268q11 27 29 55t45 58.5t65.5 49.5t81.5 19q49 0 129.5 -44t122.5 -44t75 23t70 65q35 -14 72 -43q-12 -27 -30 -55.5t-45 -58.5t-64 -49t-76 -19q-57 0 -137 44t-123 44q-40 0 -73.5 -23t-70.5 -65q-33 8 -71 43z" />
<glyph unicode="&#xf2;" horiz-adv-x="1081" d="M84 518q0 261 115.5 397t341.5 136t341 -136t115 -397t-115 -397.5t-341 -136.5t-341.5 136.5t-115.5 397.5zM281 518q0 -229 61 -330.5t199 -101.5t200 102t62 330t-62 329t-200 101t-199 -100.5t-61 -329.5zM330 1427q0 30 24 53t56 23q47 0 69 -37l185 -256l-50 -53 l-229 184q-29 23 -42 41.5t-13 44.5z" />
<glyph unicode="&#xf3;" horiz-adv-x="1081" d="M84 518q0 261 115.5 397t341.5 136t341 -136t115 -397t-115 -397.5t-341 -136.5t-341.5 136.5t-115.5 397.5zM281 518q0 -229 61 -330.5t199 -101.5t200 102t62 330t-62 329t-200 101t-199 -100.5t-61 -329.5zM414 1210l184 256q22 37 70 37q32 0 56 -23t24 -53 q0 -25 -13.5 -43.5t-42.5 -42.5l-229 -184z" />
<glyph unicode="&#xf4;" horiz-adv-x="1081" d="M84 518q0 261 115.5 397t341.5 136t341 -136t115 -397t-115 -397.5t-341 -136.5t-341.5 136.5t-115.5 397.5zM268 1231l205 235q27 35 68 35t69 -35l205 -235l-49 -53l-225 170l-224 -170zM281 518q0 -229 61 -330.5t199 -101.5t200 102t62 330t-62 329t-200 101 t-199 -100.5t-61 -329.5z" />
<glyph unicode="&#xf5;" horiz-adv-x="1081" d="M84 518q0 261 115.5 397t341.5 136t341 -136t115 -397t-115 -397.5t-341 -136.5t-341.5 136.5t-115.5 397.5zM199 1268q11 27 29 55t45 58.5t65.5 49.5t81.5 19q49 0 129.5 -44t122.5 -44t75 23t70 65q35 -14 72 -43q-12 -27 -30 -55.5t-45 -58.5t-64 -49t-76 -19 q-57 0 -137 44t-123 44q-40 0 -73.5 -23t-70.5 -65q-33 8 -71 43zM281 518q0 -229 61 -330.5t199 -101.5t200 102t62 330t-62 329t-200 101t-199 -100.5t-61 -329.5z" />
<glyph unicode="&#xf6;" horiz-adv-x="1081" d="M84 518q0 261 115.5 397t341.5 136t341 -136t115 -397t-115 -397.5t-341 -136.5t-341.5 136.5t-115.5 397.5zM252 1337q0 115 104 115q105 0 105 -115q0 -116 -105 -116q-104 0 -104 116zM281 518q0 -229 61 -330.5t199 -101.5t200 102t62 330t-62 329t-200 101 t-199 -100.5t-61 -329.5zM621 1337q0 115 102 115q106 0 106 -115q0 -116 -106 -116q-102 0 -102 116z" />
<glyph unicode="&#xf7;" horiz-adv-x="1116" d="M127 549v117h862v-117h-862zM455 279q0 41 29.5 71.5t68.5 30.5q41 0 71.5 -30.5t30.5 -71.5q0 -39 -30.5 -69t-71.5 -30q-38 0 -68 30.5t-30 68.5zM455 932q0 40 30 70t68 30q41 0 71.5 -30t30.5 -70q0 -39 -30.5 -68.5t-71.5 -29.5q-38 0 -68 30t-30 68z" />
<glyph unicode="&#xf8;" horiz-adv-x="1081" d="M70 6l112 135q-98 134 -98 377q0 261 115.5 397t341.5 136q194 0 309 -103l98 119l17 2q20 -13 47 -45l-111 -133q96 -137 96 -373q0 -261 -115 -397.5t-341 -136.5q-196 0 -310 102l-100 -123l-14 -2q-25 20 -47 45zM281 518q0 -147 22 -231l449 542q-62 119 -211 119 q-138 0 -199 -100.5t-61 -329.5zM332 205q60 -119 209 -119q138 0 200 102t62 330q0 142 -23 227z" />
<glyph unicode="&#xf9;" horiz-adv-x="1204" d="M29 915l6 66q87 14 293 76l43 -23v-719q0 -231 190 -231q58 0 121.5 42.5t112.5 131.5v512q0 82 -33.5 112t-120.5 33l6 66q87 14 293 76l43 -23v-899q54 -40 154 -59l-9 -76h-292l-23 139q-119 -155 -276 -155q-355 0 -355 356v430q0 82 -33 112t-120 33zM371 1427 q0 30 24 53t56 23q47 0 69 -37l185 -256l-50 -53l-229 184q-29 23 -42 41.5t-13 44.5z" />
<glyph unicode="&#xfa;" horiz-adv-x="1204" d="M29 915l6 66q87 14 293 76l43 -23v-719q0 -231 190 -231q58 0 121.5 42.5t112.5 131.5v512q0 82 -33.5 112t-120.5 33l6 66q87 14 293 76l43 -23v-899q54 -40 154 -59l-9 -76h-292l-23 139q-119 -155 -276 -155q-355 0 -355 356v430q0 82 -33 112t-120 33zM455 1210 l184 256q22 37 70 37q32 0 55.5 -23t23.5 -53q0 -26 -13 -44.5t-42 -41.5l-229 -184z" />
<glyph unicode="&#xfb;" horiz-adv-x="1204" d="M29 915l6 66q87 14 293 76l43 -23v-719q0 -231 190 -231q58 0 121.5 42.5t112.5 131.5v512q0 82 -33.5 112t-120.5 33l6 66q87 14 293 76l43 -23v-899q54 -40 154 -59l-9 -76h-292l-23 139q-119 -155 -276 -155q-355 0 -355 356v430q0 82 -33 112t-120 33zM309 1231 l205 235q27 35 68 35t69 -35l205 -235l-49 -53l-225 170l-224 -170z" />
<glyph unicode="&#xfc;" horiz-adv-x="1204" d="M29 915l6 66q87 14 293 76l43 -23v-719q0 -231 190 -231q58 0 121.5 42.5t112.5 131.5v512q0 82 -33.5 112t-120.5 33l6 66q87 14 293 76l43 -23v-899q54 -40 154 -59l-9 -76h-292l-23 139q-119 -155 -276 -155q-355 0 -355 356v430q0 82 -33 112t-120 33zM293 1337 q0 115 104 115q105 0 105 -115q0 -116 -105 -116q-104 0 -104 116zM662 1337q0 115 102 115q106 0 106 -115q0 -116 -106 -116q-102 0 -102 116z" />
<glyph unicode="&#xfd;" horiz-adv-x="1126" d="M-2 969l6 67h481l-6 -65q-43 -5 -73 -15t-58 -34l256 -672l219 672q-48 35 -131 49l6 65h430l-6 -65q-144 -20 -164 -76l-378 -1098q-55 -160 -124.5 -227.5t-174.5 -67.5q-87 0 -145 48.5t-58 121.5q0 59 31 92t77 33q40 0 78 -24q-26 -37 -26 -76q0 -33 20 -54.5 t53 -21.5q47 0 83 47.5t71 155.5l53 166l-362 884q-30 72 -158 95zM457 1210l184 256q22 37 70 37q32 0 56 -23t24 -53q0 -25 -13.5 -43.5t-42.5 -42.5l-229 -184z" />
<glyph unicode="&#xfe;" horiz-adv-x="1142" d="M51 -467l8 80q51 8 82 19.5t64 35.5v1557q0 70 -36 98t-118 31l6 65q87 14 293 76l43 -22v-566q89 142 273 142q195 0 294 -128.5t99 -381.5q0 -270 -125.5 -412.5t-360.5 -142.5q-87 0 -180 34v-350q55 -40 154 -59l-8 -76h-488zM393 121q73 -43 187 -43q134 0 209 121 t75 340q0 214 -53 314.5t-166 100.5q-124 0 -188 -104.5t-64 -312.5v-416z" />
<glyph unicode="&#xff;" horiz-adv-x="1126" d="M-2 969l6 67h481l-6 -65q-43 -5 -73 -15t-58 -34l256 -672l219 672q-48 35 -131 49l6 65h430l-6 -65q-143 -20 -159 -66l-383 -1108q-55 -160 -124.5 -227.5t-174.5 -67.5q-87 0 -145 48.5t-58 121.5q0 59 31 92t77 33q40 0 78 -24q-26 -37 -26 -76q0 -33 20 -54.5 t53 -21.5q47 0 83 47.5t71 155.5l53 166l-362 884q-30 72 -158 95zM295 1337q0 115 104 115q105 0 105 -115q0 -116 -105 -116q-104 0 -104 116zM664 1337q0 115 102 115q106 0 106 -115q0 -116 -106 -116q-102 0 -102 116z" />
<glyph unicode="&#x152;" horiz-adv-x="1867" d="M98 692q0 348 148.5 525.5t458.5 177.5q47 0 128 -5.5t111 -5.5h793l18 -331q-37 -11 -61 -11q-25 0 -33 2q-27 132 -102 224h-420v-502h266q47 0 80.5 41t42.5 108h69v-430h-69q-10 82 -42.5 124t-80.5 42h-266v-526h450q76 101 105 248q28 4 43 4q11 0 47 -4l-21 -373 h-819q-41 0 -117 -6t-122 -6q-310 0 -458.5 177.5t-148.5 526.5zM315 692q0 -316 87.5 -455t302.5 -139q143 0 239 41v1106q-99 39 -239 39q-216 0 -303 -138t-87 -454z" />
<glyph unicode="&#x153;" horiz-adv-x="1712" d="M84 518q0 261 115.5 397t341.5 136q244 0 360 -162q118 162 352 162q110 0 186.5 -31t120 -93t63 -142t22.5 -191l-46 -59h-593v-33q0 -78 4 -131.5t19.5 -113.5t43 -96t77.5 -59.5t120 -23.5q156 0 258 121l69 -70q-123 -145 -335 -145q-255 0 -367 153 q-116 -153 -354 -153q-226 0 -341.5 136.5t-115.5 397.5zM281 518q0 -229 61 -330.5t199 -101.5t200 102.5t62 335.5q0 226 -63 325t-199 99q-138 0 -199 -100.5t-61 -329.5zM1006 616q78 1 188 5t181 8l71 4q0 172 -43.5 250t-157.5 78q-121 0 -178.5 -92.5t-60.5 -252.5z " />
<glyph unicode="&#x2c6;" horiz-adv-x="763" d="M109 1231l204 235q27 35 68 35q42 0 70 -35l204 -235l-49 -53l-225 170l-223 -170z" />
<glyph unicode="&#x2dc;" horiz-adv-x="815" d="M66 1268q11 27 29 55t45 58.5t65.5 49.5t81.5 19q49 0 129.5 -44t122.5 -44t75 23t70 65q35 -14 72 -43q-12 -27 -30 -55.5t-45 -58.5t-64 -49t-76 -19q-57 0 -137 44t-123 44q-40 0 -73.5 -23t-70.5 -65q-33 8 -71 43z" />
<glyph unicode="&#x2000;" horiz-adv-x="900" />
<glyph unicode="&#x2001;" horiz-adv-x="1800" />
<glyph unicode="&#x2002;" horiz-adv-x="900" />
<glyph unicode="&#x2003;" horiz-adv-x="1800" />
<glyph unicode="&#x2004;" horiz-adv-x="600" />
<glyph unicode="&#x2005;" horiz-adv-x="450" />
<glyph unicode="&#x2006;" horiz-adv-x="300" />
<glyph unicode="&#x2007;" horiz-adv-x="300" />
<glyph unicode="&#x2008;" horiz-adv-x="225" />
<glyph unicode="&#x2009;" horiz-adv-x="360" />
<glyph unicode="&#x200a;" horiz-adv-x="100" />
<glyph unicode="&#x2010;" horiz-adv-x="735" d="M61 494v118h613v-118h-613z" />
<glyph unicode="&#x2011;" horiz-adv-x="735" d="M61 494v118h613v-118h-613z" />
<glyph unicode="&#x2012;" horiz-adv-x="735" d="M61 494v118h613v-118h-613z" />
<glyph unicode="&#x2013;" horiz-adv-x="1024" d="M0 494v118h1024v-118h-1024z" />
<glyph unicode="&#x2014;" horiz-adv-x="1740" d="M0 494v118h1741v-118h-1741z" />
<glyph unicode="&#x2018;" horiz-adv-x="354" d="M41 1206q0 168 170 283l43 -51q-90 -63 -90 -138q0 -36 17 -55.5t44 -19.5q23 0 41 10q27 -27 27 -80q0 -46 -34.5 -75t-88.5 -29q-59 0 -94 42.5t-35 112.5z" />
<glyph unicode="&#x2019;" horiz-adv-x="354" d="M61 1384q0 46 34.5 75.5t88.5 29.5q58 0 93.5 -42.5t35.5 -113.5q0 -167 -170 -282l-43 51q90 63 90 137q0 36 -17 56t-44 20q-23 0 -41 -10q-27 27 -27 79z" />
<glyph unicode="&#x201a;" horiz-adv-x="440" d="M113 -233q3 2 18.5 11.5t29 18t32 26t31 37t21.5 49.5t9 64q0 30 -21 50t-43 20q-30 0 -40 -10q-27 21 -27 76q0 46 34 77t81 31q67 0 102 -41t35 -110q0 -267 -230 -353z" />
<glyph unicode="&#x201c;" horiz-adv-x="694" d="M41 1206q0 168 170 283l43 -51q-90 -63 -90 -138q0 -36 17 -55.5t44 -19.5q23 0 41 10q27 -27 27 -80q0 -46 -34.5 -75t-88.5 -29q-59 0 -94 42.5t-35 112.5zM381 1206q0 168 170 283l43 -51q-90 -63 -90 -138q0 -36 17 -55.5t44 -19.5q23 0 41 10q27 -27 27 -80 q0 -46 -34.5 -75t-88.5 -29q-59 0 -94 42.5t-35 112.5z" />
<glyph unicode="&#x201d;" horiz-adv-x="694" d="M61 1384q0 46 34.5 75.5t88.5 29.5q58 0 93.5 -42.5t35.5 -113.5q0 -167 -170 -282l-43 51q90 63 90 137q0 36 -17 56t-44 20q-23 0 -41 -10q-27 27 -27 79zM401 1384q0 46 34.5 75.5t88.5 29.5q58 0 93.5 -42.5t35.5 -113.5q0 -167 -170 -282l-43 51q90 63 90 137 q0 36 -17 56t-44 20q-23 0 -41 -10q-27 27 -27 79z" />
<glyph unicode="&#x201e;" horiz-adv-x="786" d="M106 109q0 46 34.5 75t88.5 29q58 0 93.5 -42.5t35.5 -113.5q0 -209 -211 -338l-36 52q125 83 125 192q0 34 -17.5 54t-46.5 20q-6 0 -39 -8q-27 27 -27 80zM500 109q0 46 34.5 75t88.5 29q58 0 93.5 -42.5t35.5 -113.5q0 -209 -211 -338l-37 52q125 83 125 192 q0 34 -17.5 54t-46.5 20q-6 0 -39 -8q-26 26 -26 80z" />
<glyph unicode="&#x2022;" horiz-adv-x="522" d="M72 657q0 77 57 134t133 57q77 0 133 -56.5t56 -134.5q0 -74 -56.5 -133t-132.5 -59q-74 0 -132 59t-58 133z" />
<glyph unicode="&#x202f;" horiz-adv-x="360" />
<glyph unicode="&#x2039;" horiz-adv-x="491" d="M51 518l293 330l66 -45l-170 -285l170 -299l-70 -45z" />
<glyph unicode="&#x203a;" horiz-adv-x="491" d="M82 219l168 299l-168 285l65 45l293 -330l-288 -344z" />
<glyph unicode="&#x205f;" horiz-adv-x="450" />
<glyph unicode="&#x20ac;" horiz-adv-x="1236" d="M68 535l14 14h127q-2 33 -2 102v35h-129q-10 42 -10 74l14 14h129q50 551 551 551q62 0 125 -15.5t121.5 -46t95.5 -85.5t37 -125q0 -71 -36 -117.5t-85 -46.5q-43 0 -74.5 22.5t-38.5 59.5q31 53 31 104q0 66 -52 99.5t-132 33.5q-166 0 -245 -103t-93 -331h348 q10 -42 10 -74l-14 -14h-346v-35q0 -69 2 -102h286q11 -46 11 -74l-15 -14h-276q22 -190 99 -274.5t233 -84.5q80 0 132 34t52 100q0 51 -31 104q7 37 38.5 59.5t74.5 22.5q49 0 85 -46.5t36 -117.5q0 -70 -37 -125t-95.5 -86.5t-122 -47t-124.5 -15.5q-246 0 -378.5 116 t-166.5 361h-139q-10 42 -10 74z" />
<glyph unicode="&#x25fc;" horiz-adv-x="1034" d="M0 0v1034h1034v-1034h-1034z" />
</font>
</defs>
</svg>
